<?xml version="1.0" encoding="UTF-8" standalone="no"?>
<!DOCTYPE svg PUBLIC "-//W3C//DTD SVG 1.1//EN" "http://www.w3.org/Graphics/SVG/1.1/DTD/svg11.dtd">
<svg xmlns="http://www.w3.org/2000/svg" xmlns:xlink="http://www.w3.org/1999/xlink" version="1.1" width="600pt" height="400pt" viewBox="0 0 600 400">
<g enable-background="new">
<clipPath id="cp0">
<path transform="matrix(1,0,0,-1,0,400)" d="M 0 0 L 600 0 L 600 400 L 0 400 Z "/>
</clipPath>
<g clip-path="url(#cp0)">
<clipPath id="cp1">
<path transform="matrix(1,0,0,-1,0,400)" d="M 0 0 L 600 0 L 600 600 L 0 600 Z "/>
</clipPath>
<g clip-path="url(#cp1)">
<path transform="matrix(1,0,0,-1,0,400)" d="M 0 0 L 600 0 L 600 400 L 0 400 " fill="#ffffff" fill-rule="evenodd"/>
</g>
<clipPath id="cp2">
<path transform="matrix(1,0,0,-1,0,400)" d="M 0 0 L 600 0 L 600 600 L 0 600 Z "/>
</clipPath>
<g clip-path="url(#cp2)">
<path transform="matrix(1,0,0,-1,0,400)" d="M 56.05 52.03 L 588.19 52.03 L 588.19 388.19 L 56.05 388.19 " fill="#ffffff" fill-rule="evenodd"/>
</g>
<path transform="matrix(1,0,0,-1,0,400)" stroke-width=".5" stroke-linecap="round" stroke-linejoin="round" fill="none" stroke="#000000" stroke-opacity=".0980392" d="M 95.39 52.03 L 95.39 388.19 "/>
<path transform="matrix(1,0,0,-1,0,400)" stroke-width=".5" stroke-linecap="round" stroke-linejoin="round" fill="none" stroke="#000000" stroke-opacity=".0980392" d="M 120.58 52.03 L 120.58 388.19 "/>
<path transform="matrix(1,0,0,-1,0,400)" stroke-width=".5" stroke-linecap="round" stroke-linejoin="round" fill="none" stroke="#000000" stroke-opacity=".0980392" d="M 145.78 52.03 L 145.78 388.19 "/>
<path transform="matrix(1,0,0,-1,0,400)" stroke-width=".5" stroke-linecap="round" stroke-linejoin="round" fill="none" stroke="#000000" stroke-opacity=".0980392" d="M 170.97 52.03 L 170.97 388.19 "/>
<path transform="matrix(1,0,0,-1,0,400)" stroke-width=".5" stroke-linecap="round" stroke-linejoin="round" fill="none" stroke="#000000" stroke-opacity=".0980392" d="M 196.16 52.03 L 196.16 388.19 "/>
<path transform="matrix(1,0,0,-1,0,400)" stroke-width=".5" stroke-linecap="round" stroke-linejoin="round" fill="none" stroke="#000000" stroke-opacity=".0980392" d="M 221.35 52.03 L 221.35 388.19 "/>
<path transform="matrix(1,0,0,-1,0,400)" stroke-width=".5" stroke-linecap="round" stroke-linejoin="round" fill="none" stroke="#000000" stroke-opacity=".0980392" d="M 246.54 52.03 L 246.54 388.19 "/>
<path transform="matrix(1,0,0,-1,0,400)" stroke-width=".5" stroke-linecap="round" stroke-linejoin="round" fill="none" stroke="#000000" stroke-opacity=".0980392" d="M 271.73 52.03 L 271.73 388.19 "/>
<path transform="matrix(1,0,0,-1,0,400)" stroke-width=".5" stroke-linecap="round" stroke-linejoin="round" fill="none" stroke="#000000" stroke-opacity=".0980392" d="M 296.93 52.03 L 296.93 388.19 "/>
<path transform="matrix(1,0,0,-1,0,400)" stroke-width=".5" stroke-linecap="round" stroke-linejoin="round" fill="none" stroke="#000000" stroke-opacity=".0980392" d="M 322.12 52.03 L 322.12 388.19 "/>
<path transform="matrix(1,0,0,-1,0,400)" stroke-width=".5" stroke-linecap="round" stroke-linejoin="round" fill="none" stroke="#000000" stroke-opacity=".0980392" d="M 347.31 52.03 L 347.31 388.19 "/>
<path transform="matrix(1,0,0,-1,0,400)" stroke-width=".5" stroke-linecap="round" stroke-linejoin="round" fill="none" stroke="#000000" stroke-opacity=".0980392" d="M 372.5 52.03 L 372.5 388.19 "/>
<path transform="matrix(1,0,0,-1,0,400)" stroke-width=".5" stroke-linecap="round" stroke-linejoin="round" fill="none" stroke="#000000" stroke-opacity=".0980392" d="M 397.69 52.03 L 397.69 388.19 "/>
<path transform="matrix(1,0,0,-1,0,400)" stroke-width=".5" stroke-linecap="round" stroke-linejoin="round" fill="none" stroke="#000000" stroke-opacity=".0980392" d="M 422.88 52.03 L 422.88 388.19 "/>
<path transform="matrix(1,0,0,-1,0,400)" stroke-width=".5" stroke-linecap="round" stroke-linejoin="round" fill="none" stroke="#000000" stroke-opacity=".0980392" d="M 448.08 52.03 L 448.08 388.19 "/>
<path transform="matrix(1,0,0,-1,0,400)" stroke-width=".5" stroke-linecap="round" stroke-linejoin="round" fill="none" stroke="#000000" stroke-opacity=".0980392" d="M 473.27 52.03 L 473.27 388.19 "/>
<path transform="matrix(1,0,0,-1,0,400)" stroke-width=".5" stroke-linecap="round" stroke-linejoin="round" fill="none" stroke="#000000" stroke-opacity=".0980392" d="M 498.46 52.03 L 498.46 388.19 "/>
<path transform="matrix(1,0,0,-1,0,400)" stroke-width=".5" stroke-linecap="round" stroke-linejoin="round" fill="none" stroke="#000000" stroke-opacity=".0980392" d="M 523.65 52.03 L 523.65 388.19 "/>
<path transform="matrix(1,0,0,-1,0,400)" stroke-width=".5" stroke-linecap="round" stroke-linejoin="round" fill="none" stroke="#000000" stroke-opacity=".0980392" d="M 548.84 52.03 L 548.84 388.19 "/>
<path transform="matrix(1,0,0,-1,0,400)" stroke-width="1" stroke-linecap="round" stroke-linejoin="round" fill="none" stroke="#000000" d="M 56.05 52.03 L 588.19 52.03 "/>
<path transform="matrix(1,0,0,-1,0,400)" stroke-width="1" stroke-linecap="round" stroke-linejoin="round" fill="none" stroke="#000000" d="M 56.05 388.19 L 588.19 388.19 "/>
<path transform="matrix(1,0,0,-1,0,400)" stroke-width="1" stroke-linecap="round" stroke-linejoin="round" fill="none" stroke="#000000" d="M 95.39 52.03 L 95.39 56.76 "/>
<path transform="matrix(1,0,0,-1,0,400)" stroke-width="1" stroke-linecap="round" stroke-linejoin="round" fill="none" stroke="#000000" d="M 120.58 52.03 L 120.58 56.76 "/>
<path transform="matrix(1,0,0,-1,0,400)" stroke-width="1" stroke-linecap="round" stroke-linejoin="round" fill="none" stroke="#000000" d="M 145.78 52.03 L 145.78 56.76 "/>
<path transform="matrix(1,0,0,-1,0,400)" stroke-width="1" stroke-linecap="round" stroke-linejoin="round" fill="none" stroke="#000000" d="M 170.97 52.03 L 170.97 56.76 "/>
<path transform="matrix(1,0,0,-1,0,400)" stroke-width="1" stroke-linecap="round" stroke-linejoin="round" fill="none" stroke="#000000" d="M 196.16 52.03 L 196.16 56.76 "/>
<path transform="matrix(1,0,0,-1,0,400)" stroke-width="1" stroke-linecap="round" stroke-linejoin="round" fill="none" stroke="#000000" d="M 221.35 52.03 L 221.35 56.76 "/>
<path transform="matrix(1,0,0,-1,0,400)" stroke-width="1" stroke-linecap="round" stroke-linejoin="round" fill="none" stroke="#000000" d="M 246.54 52.03 L 246.54 56.76 "/>
<path transform="matrix(1,0,0,-1,0,400)" stroke-width="1" stroke-linecap="round" stroke-linejoin="round" fill="none" stroke="#000000" d="M 271.73 52.03 L 271.73 56.76 "/>
<path transform="matrix(1,0,0,-1,0,400)" stroke-width="1" stroke-linecap="round" stroke-linejoin="round" fill="none" stroke="#000000" d="M 296.93 52.03 L 296.93 56.76 "/>
<path transform="matrix(1,0,0,-1,0,400)" stroke-width="1" stroke-linecap="round" stroke-linejoin="round" fill="none" stroke="#000000" d="M 322.12 52.03 L 322.12 56.76 "/>
<path transform="matrix(1,0,0,-1,0,400)" stroke-width="1" stroke-linecap="round" stroke-linejoin="round" fill="none" stroke="#000000" d="M 347.31 52.03 L 347.31 56.76 "/>
<path transform="matrix(1,0,0,-1,0,400)" stroke-width="1" stroke-linecap="round" stroke-linejoin="round" fill="none" stroke="#000000" d="M 372.5 52.03 L 372.5 56.76 "/>
<path transform="matrix(1,0,0,-1,0,400)" stroke-width="1" stroke-linecap="round" stroke-linejoin="round" fill="none" stroke="#000000" d="M 397.69 52.03 L 397.69 56.76 "/>
<path transform="matrix(1,0,0,-1,0,400)" stroke-width="1" stroke-linecap="round" stroke-linejoin="round" fill="none" stroke="#000000" d="M 422.88 52.03 L 422.88 56.76 "/>
<path transform="matrix(1,0,0,-1,0,400)" stroke-width="1" stroke-linecap="round" stroke-linejoin="round" fill="none" stroke="#000000" d="M 448.08 52.03 L 448.08 56.76 "/>
<path transform="matrix(1,0,0,-1,0,400)" stroke-width="1" stroke-linecap="round" stroke-linejoin="round" fill="none" stroke="#000000" d="M 473.27 52.03 L 473.27 56.76 "/>
<path transform="matrix(1,0,0,-1,0,400)" stroke-width="1" stroke-linecap="round" stroke-linejoin="round" fill="none" stroke="#000000" d="M 498.46 52.03 L 498.46 56.76 "/>
<path transform="matrix(1,0,0,-1,0,400)" stroke-width="1" stroke-linecap="round" stroke-linejoin="round" fill="none" stroke="#000000" d="M 523.65 52.03 L 523.65 56.76 "/>
<path transform="matrix(1,0,0,-1,0,400)" stroke-width="1" stroke-linecap="round" stroke-linejoin="round" fill="none" stroke="#000000" d="M 548.84 52.03 L 548.84 56.76 "/>
<path transform="matrix(1,0,0,-1,0,400)" d="M 89.69 35.11 L 88.57 35.87 C 88.57 35.87 87.41 36.66 86.69 35.93 C 86.69 35.93 86.14 35.38 86.34 34.68 C 86.34 34.68 86.59 33.8 87.33 33.06 C 87.33 33.06 88.23 32.16 88.97 32.03 C 88.97 32.03 89.72 31.91 90.21 32.4 C 90.21 32.4 90.76 32.95 90.18 34.12 L 89.69 35.11 M 88.86 36.78 L 88.07 38.39 L 88.74 39.06 L 90.39 35.73 L 91.45 35 C 91.45 35 91.68 34.84 91.99 34.81 C 91.99 34.81 92.36 34.78 92.49 34.92 L 92.85 35.28 L 93.49 34.64 L 93.04 34.19 C 93.04 34.19 92.65 33.8 91.96 33.8 C 91.96 33.8 91.63 33.81 91.2 34.1 C 91.2 34.1 91.46 33.45 91.43 32.71 C 91.43 32.71 91.42 32.37 90.84 31.78 C 90.84 31.78 89.87 30.82 88.79 30.97 C 88.79 30.97 87.66 31.14 86.54 32.26 C 86.54 32.26 85.34 33.47 85.29 34.55 C 85.29 34.55 85.24 35.76 86.05 36.57 C 86.05 36.57 87.32 37.84 88.86 36.78 Z "/>
<path transform="matrix(1,0,0,-1,0,400)" d="M 94.23 36.77 L 95.58 38.12 L 90.92 42.78 L 89.75 41.02 L 88.99 41.77 L 90.16 43.53 L 90.99 44.36 L 96.4 38.94 L 97.75 40.29 L 98.45 39.6 L 94.93 36.08 L 94.23 36.77 Z "/>
<path transform="matrix(1,0,0,-1,0,400)" d="M 114.95 35.17 L 113.83 35.94 C 113.83 35.94 112.67 36.72 111.94 36 C 111.94 36 111.4 35.45 111.6 34.75 C 111.6 34.75 111.85 33.87 112.59 33.12 C 112.59 33.12 113.49 32.22 114.23 32.1 C 114.23 32.1 114.98 31.97 115.47 32.47 C 115.47 32.47 116.02 33.02 115.44 34.18 L 114.95 35.17 M 114.12 36.85 L 113.33 38.45 L 114 39.12 L 115.64 35.8 L 116.7 35.07 C 116.7 35.07 116.94 34.9 117.25 34.88 C 117.25 34.88 117.62 34.85 117.75 34.98 L 118.11 35.34 L 118.74 34.7 L 118.29 34.25 C 118.29 34.25 117.91 33.87 117.22 33.87 C 117.22 33.87 116.88 33.87 116.45 34.16 C 116.45 34.16 116.72 33.52 116.69 32.78 C 116.69 32.78 116.68 32.43 116.09 31.85 C 116.09 31.85 115.13 30.88 114.04 31.04 C 114.04 31.04 112.92 31.2 111.8 32.33 C 111.8 32.33 110.59 33.53 110.55 34.62 C 110.55 34.62 110.49 35.82 111.31 36.63 C 111.31 36.63 112.58 37.91 114.12 36.85 Z "/>
<path transform="matrix(1,0,0,-1,0,400)" d="M 120.06 37.41 L 122.94 40.29 L 123.64 39.6 L 119.76 35.72 L 119.06 36.41 C 119.06 36.41 119.05 37.37 119.04 39 C 119.04 39 119.03 40.64 119 41.08 C 119 41.08 118.95 41.92 118.8 42.39 C 118.8 42.39 118.65 42.86 118.35 43.16 C 118.35 43.16 117.86 43.64 117.21 43.61 C 117.21 43.61 116.57 43.57 116.02 43.03 C 116.02 43.03 115.63 42.64 115.33 42.07 C 115.33 42.07 115.04 41.5 114.82 40.74 L 113.99 41.57 C 113.99 41.57 114.28 42.27 114.62 42.81 C 114.62 42.81 114.95 43.34 115.31 43.7 C 115.31 43.7 116.26 44.65 117.3 44.74 C 117.3 44.74 118.34 44.83 119.13 44.04 C 119.13 44.04 119.51 43.66 119.7 43.18 C 119.7 43.18 119.9 42.71 119.98 41.88 C 119.98 41.88 120 41.65 120.02 40.54 C 120.02 40.54 120.04 39.42 120.06 37.41 Z "/>
<path transform="matrix(1,0,0,-1,0,400)" d="M 139.98 35.01 L 138.85 35.77 C 138.85 35.77 137.7 36.56 136.97 35.83 C 136.97 35.83 136.42 35.28 136.62 34.58 C 136.62 34.58 136.87 33.7 137.61 32.96 C 137.61 32.96 138.51 32.05 139.25 31.93 C 139.25 31.93 140 31.81 140.49 32.3 C 140.49 32.3 141.04 32.85 140.47 34.01 L 139.98 35.01 M 139.14 36.68 L 138.35 38.28 L 139.02 38.95 L 140.67 35.63 L 141.73 34.9 C 141.73 34.9 141.96 34.74 142.27 34.71 C 142.27 34.71 142.64 34.68 142.77 34.81 L 143.13 35.17 L 143.77 34.53 L 143.32 34.08 C 143.32 34.08 142.93 33.7 142.25 33.7 C 142.25 33.7 141.91 33.7 141.48 33.99 C 141.48 33.99 141.74 33.35 141.71 32.61 C 141.71 32.61 141.7 32.26 141.12 31.68 C 141.12 31.68 140.16 30.72 139.07 30.87 C 139.07 30.87 137.95 31.04 136.82 32.16 C 136.82 32.16 135.62 33.36 135.57 34.45 C 135.57 34.45 135.52 35.66 136.33 36.47 C 136.33 36.47 137.6 37.74 139.14 36.68 Z "/>
<path transform="matrix(1,0,0,-1,0,400)" d="M 144.28 41.63 C 144.28 41.63 145 42.1 145.73 42.03 C 145.73 42.03 146.47 41.96 147.05 41.37 C 147.05 41.37 147.96 40.47 147.83 39.35 C 147.83 39.35 147.7 38.23 146.56 37.09 C 146.56 37.09 146.17 36.7 145.69 36.37 C 145.69 36.37 145.21 36.04 144.62 35.76 L 143.83 36.56 C 143.83 36.56 144.37 36.7 144.88 37.01 C 144.88 37.01 145.39 37.31 145.84 37.76 C 145.84 37.76 146.62 38.54 146.71 39.25 C 146.71 39.25 146.82 39.96 146.23 40.55 C 146.23 40.55 145.69 41.09 145.01 41.01 C 145.01 41.01 144.32 40.94 143.65 40.27 L 142.94 39.56 L 142.26 40.23 L 143 40.98 C 143 40.98 143.61 41.59 143.69 42.15 C 143.69 42.15 143.77 42.72 143.31 43.18 C 143.31 43.18 142.84 43.65 142.26 43.57 C 142.26 43.57 141.67 43.49 141.05 42.87 C 141.05 42.87 140.71 42.53 140.4 42.06 C 140.4 42.06 140.08 41.6 139.77 40.98 L 139.03 41.72 C 139.03 41.72 139.37 42.32 139.72 42.79 C 139.72 42.79 140.07 43.27 140.43 43.64 C 140.43 43.64 141.37 44.58 142.35 44.7 C 142.35 44.7 143.32 44.82 144.05 44.09 C 144.05 44.09 144.56 43.58 144.62 42.94 C 144.62 42.94 144.68 42.3 144.28 41.63 Z "/>
<path transform="matrix(1,0,0,-1,0,400)" d="M 164.97 34.8 L 163.84 35.57 C 163.84 35.57 162.69 36.36 161.96 35.63 C 161.96 35.63 161.41 35.08 161.61 34.38 C 161.61 34.38 161.86 33.5 162.61 32.75 C 162.61 32.75 163.51 31.85 164.24 31.73 C 164.24 31.73 164.99 31.6 165.49 32.1 C 165.49 32.1 166.03 32.65 165.46 33.81 L 164.97 34.8 M 164.14 36.48 L 163.34 38.08 L 164.01 38.75 L 165.66 35.43 L 166.72 34.7 C 166.72 34.7 166.96 34.53 167.27 34.51 C 167.27 34.51 167.63 34.48 167.76 34.61 L 168.12 34.97 L 168.76 34.33 L 168.31 33.88 C 168.31 33.88 167.92 33.5 167.24 33.5 C 167.24 33.5 166.9 33.5 166.47 33.79 C 166.47 33.79 166.73 33.15 166.71 32.41 C 166.71 32.41 166.69 32.06 166.11 31.48 C 166.11 31.48 165.15 30.52 164.06 30.67 C 164.06 30.67 162.94 30.84 161.81 31.96 C 161.81 31.96 160.61 33.16 160.56 34.25 C 160.56 34.25 160.51 35.46 161.32 36.27 C 161.32 36.27 162.59 37.54 164.14 36.48 Z "/>
<path transform="matrix(1,0,0,-1,0,400)" d="M 166.94 43.29 L 168.11 37.94 L 170.2 40.03 L 166.94 43.29 M 166 43.79 L 167.04 44.83 L 171.02 40.85 L 171.89 41.72 L 172.58 41.04 L 171.71 40.17 L 173.15 38.72 L 172.33 37.9 L 170.89 39.34 L 168.13 36.58 L 167.33 37.38 L 166 43.79 Z "/>
<path transform="matrix(1,0,0,-1,0,400)" d="M 190.42 35.07 L 189.29 35.83 C 189.29 35.83 188.14 36.62 187.41 35.89 C 187.41 35.89 186.86 35.34 187.06 34.64 C 187.06 34.64 187.31 33.76 188.06 33.02 C 188.06 33.02 188.96 32.12 189.7 31.99 C 189.7 31.99 190.44 31.87 190.94 32.36 C 190.94 32.36 191.49 32.91 190.91 34.08 L 190.42 35.07 M 189.59 36.74 L 188.8 38.34 L 189.47 39.02 L 191.11 35.69 L 192.17 34.96 C 192.17 34.96 192.41 34.8 192.72 34.77 C 192.72 34.77 193.08 34.74 193.21 34.87 L 193.57 35.23 L 194.21 34.6 L 193.76 34.15 C 193.76 34.15 193.38 33.76 192.69 33.76 C 192.69 33.76 192.35 33.77 191.92 34.06 C 191.92 34.06 192.19 33.41 192.16 32.67 C 192.16 32.67 192.15 32.32 191.56 31.74 C 191.56 31.74 190.6 30.78 189.51 30.93 C 189.51 30.93 188.39 31.1 187.27 32.22 C 187.27 32.22 186.06 33.43 186.02 34.51 C 186.02 34.51 185.96 35.72 186.77 36.53 C 186.77 36.53 188.05 37.8 189.59 36.74 Z "/>
<path transform="matrix(1,0,0,-1,0,400)" d="M 189.41 42.01 L 192.65 45.26 L 193.35 44.56 L 190.86 42.07 L 192.36 40.57 C 192.36 40.57 192.48 40.82 192.63 41.02 C 192.63 41.02 192.78 41.24 192.96 41.42 C 192.96 41.42 193.98 42.44 195.14 42.48 C 195.14 42.48 196.3 42.51 197.25 41.56 C 197.25 41.56 198.24 40.57 198.17 39.41 C 198.17 39.41 198.1 38.25 196.99 37.13 C 196.99 37.13 196.6 36.75 196.14 36.41 C 196.14 36.41 195.67 36.08 195.12 35.79 L 194.29 36.62 C 194.29 36.62 194.86 36.79 195.35 37.08 C 195.35 37.08 195.84 37.37 196.28 37.81 C 196.28 37.81 196.98 38.52 197.02 39.31 C 197.02 39.31 197.07 40.09 196.43 40.73 C 196.43 40.73 195.79 41.37 195 41.33 C 195 41.33 194.22 41.29 193.51 40.58 C 193.51 40.58 193.18 40.25 192.92 39.84 C 192.92 39.84 192.67 39.44 192.48 38.94 L 189.41 42.01 Z "/>
<path transform="matrix(1,0,0,-1,0,400)" d="M 215.41 34.86 L 214.28 35.63 C 214.28 35.63 213.13 36.41 212.4 35.68 C 212.4 35.68 211.85 35.14 212.05 34.44 C 212.05 34.44 212.3 33.56 213.05 32.81 C 213.05 32.81 213.95 31.91 214.68 31.79 C 214.68 31.79 215.43 31.66 215.93 32.16 C 215.93 32.16 216.48 32.71 215.9 33.87 L 215.41 34.86 M 214.58 36.54 L 213.78 38.14 L 214.45 38.81 L 216.1 35.49 L 217.16 34.76 C 217.16 34.76 217.4 34.59 217.71 34.57 C 217.71 34.57 218.07 34.54 218.2 34.67 L 218.56 35.03 L 219.2 34.39 L 218.75 33.94 C 218.75 33.94 218.37 33.56 217.68 33.56 C 217.68 33.56 217.34 33.56 216.91 33.85 C 216.91 33.85 217.17 33.21 217.15 32.47 C 217.15 32.47 217.13 32.12 216.55 31.54 C 216.55 31.54 215.59 30.57 214.5 30.73 C 214.5 30.73 213.38 30.89 212.25 32.02 C 212.25 32.02 211.05 33.22 211 34.31 C 211 34.31 210.95 35.51 211.76 36.32 C 211.76 36.32 213.03 37.6 214.58 36.54 Z "/>
<path transform="matrix(1,0,0,-1,0,400)" d="M 218.98 40.94 C 218.98 40.94 218.43 40.39 218.48 39.68 C 218.48 39.68 218.54 38.97 219.2 38.31 C 219.2 38.31 219.86 37.65 220.57 37.59 C 220.57 37.59 221.28 37.54 221.83 38.09 C 221.83 38.09 222.39 38.65 222.33 39.36 C 222.33 39.36 222.27 40.07 221.61 40.73 C 221.61 40.73 220.95 41.39 220.24 41.44 C 220.24 41.44 219.54 41.5 218.98 40.94 M 218.03 45.17 L 218.79 44.42 C 218.79 44.42 218.33 44.26 217.93 44.02 C 217.93 44.02 217.54 43.78 217.23 43.47 C 217.23 43.47 216.41 42.65 216.53 41.66 C 216.53 41.66 216.65 40.68 217.71 39.5 C 217.71 39.5 217.59 40.1 217.77 40.65 C 217.77 40.65 217.94 41.21 218.38 41.65 C 218.38 41.65 219.3 42.57 220.39 42.54 C 220.39 42.54 221.48 42.52 222.45 41.56 C 222.45 41.56 223.39 40.62 223.4 39.49 C 223.4 39.49 223.41 38.36 222.49 37.44 C 222.49 37.44 221.43 36.38 220.06 36.63 C 220.06 36.63 218.68 36.88 217.14 38.43 C 217.14 38.43 215.69 39.87 215.52 41.42 C 215.52 41.42 215.34 42.97 216.5 44.13 C 216.5 44.13 216.81 44.44 217.19 44.7 C 217.19 44.7 217.57 44.95 218.03 45.17 Z "/>
<path transform="matrix(1,0,0,-1,0,400)" d="M 240.79 35.05 L 239.66 35.82 C 239.66 35.82 238.51 36.6 237.78 35.87 C 237.78 35.87 237.23 35.32 237.43 34.62 C 237.43 34.62 237.68 33.74 238.43 33 C 238.43 33 239.33 32.1 240.06 31.98 C 240.06 31.98 240.81 31.85 241.31 32.35 C 241.31 32.35 241.86 32.89 241.28 34.06 L 240.79 35.05 M 239.96 36.72 L 239.16 38.33 L 239.83 39 L 241.48 35.68 L 242.54 34.94 C 242.54 34.94 242.78 34.78 243.09 34.76 C 243.09 34.76 243.45 34.73 243.58 34.86 L 243.94 35.22 L 244.58 34.58 L 244.13 34.13 C 244.13 34.13 243.75 33.74 243.06 33.74 C 243.06 33.74 242.72 33.75 242.29 34.04 C 242.29 34.04 242.55 33.4 242.53 32.66 C 242.53 32.66 242.51 32.31 241.93 31.72 C 241.93 31.72 240.97 30.76 239.88 30.92 C 239.88 30.92 238.76 31.08 237.63 32.21 C 237.63 32.21 236.43 33.41 236.38 34.49 C 236.38 34.49 236.33 35.7 237.14 36.51 C 237.14 36.51 238.41 37.78 239.96 36.72 Z "/>
<path transform="matrix(1,0,0,-1,0,400)" d="M 239.56 41.78 L 243.49 45.71 L 243.84 45.35 L 247.38 37.38 L 246.52 36.52 L 243.19 44.02 L 240.26 41.08 L 239.56 41.78 Z "/>
<path transform="matrix(1,0,0,-1,0,400)" d="M 265.84 34.91 L 264.71 35.67 C 264.71 35.67 263.56 36.46 262.83 35.73 C 262.83 35.73 262.28 35.18 262.48 34.48 C 262.48 34.48 262.73 33.6 263.47 32.86 C 263.47 32.86 264.37 31.96 265.11 31.83 C 265.11 31.83 265.86 31.71 266.36 32.2 C 266.36 32.2 266.9 32.75 266.33 33.92 L 265.84 34.91 M 265 36.58 L 264.21 38.18 L 264.88 38.86 L 266.53 35.53 L 267.59 34.8 C 267.59 34.8 267.82 34.64 268.14 34.61 C 268.14 34.61 268.5 34.58 268.63 34.71 L 268.99 35.07 L 269.63 34.44 L 269.18 33.99 C 269.18 33.99 268.79 33.6 268.11 33.6 C 268.11 33.6 267.77 33.61 267.34 33.9 C 267.34 33.9 267.6 33.25 267.57 32.51 C 267.57 32.51 267.56 32.17 266.98 31.58 C 266.98 31.58 266.02 30.62 264.93 30.77 C 264.93 30.77 263.81 30.94 262.68 32.06 C 262.68 32.06 261.48 33.27 261.43 34.35 C 261.43 34.35 261.38 35.56 262.19 36.37 C 262.19 36.37 263.46 37.64 265 36.58 Z "/>
<path transform="matrix(1,0,0,-1,0,400)" d="M 269.79 40.4 C 269.79 40.4 269.2 39.81 269.18 39.16 C 269.18 39.16 269.16 38.51 269.71 37.96 C 269.71 37.96 270.26 37.4 270.91 37.42 C 270.91 37.42 271.57 37.45 272.16 38.04 C 272.16 38.04 272.75 38.63 272.77 39.28 C 272.77 39.28 272.79 39.94 272.24 40.49 C 272.24 40.49 271.69 41.04 271.04 41.02 C 271.04 41.02 270.39 41 269.79 40.4 M 268.61 39.93 C 268.61 39.93 267.95 39.53 267.29 39.59 C 267.29 39.59 266.63 39.66 266.11 40.19 C 266.11 40.19 265.37 40.92 265.47 41.86 C 265.47 41.86 265.57 42.81 266.47 43.72 C 266.47 43.72 267.39 44.63 268.33 44.73 C 268.33 44.73 269.28 44.82 270.01 44.09 C 270.01 44.09 270.53 43.57 270.6 42.9 C 270.6 42.9 270.67 42.24 270.27 41.59 C 270.27 41.59 271.01 42.04 271.74 41.97 C 271.74 41.97 272.49 41.9 273.07 41.32 C 273.07 41.32 273.96 40.43 273.89 39.41 C 273.89 39.41 273.82 38.39 272.81 37.38 C 272.81 37.38 271.8 36.37 270.78 36.3 C 270.78 36.3 269.77 36.24 268.88 37.12 C 268.88 37.12 268.29 37.71 268.23 38.45 C 268.23 38.45 268.16 39.19 268.61 39.93 M 267.01 40.93 C 267.01 40.93 267.48 40.46 268.04 40.48 C 268.04 40.48 268.61 40.52 269.14 41.05 C 269.14 41.05 269.67 41.59 269.71 42.15 C 269.71 42.15 269.74 42.72 269.27 43.19 C 269.27 43.19 268.79 43.67 268.23 43.63 C 268.23 43.63 267.66 43.6 267.13 43.07 C 267.13 43.07 266.59 42.53 266.56 41.97 C 266.56 41.97 266.53 41.41 267.01 40.93 Z "/>
<path transform="matrix(1,0,0,-1,0,400)" d="M 291.04 34.92 L 289.92 35.69 C 289.92 35.69 288.76 36.47 288.04 35.75 C 288.04 35.75 287.49 35.2 287.69 34.5 C 287.69 34.5 287.94 33.62 288.68 32.87 C 288.68 32.87 289.58 31.97 290.32 31.85 C 290.32 31.85 291.07 31.72 291.56 32.22 C 291.56 32.22 292.11 32.77 291.53 33.93 L 291.04 34.92 M 290.21 36.6 L 289.42 38.2 L 290.09 38.87 L 291.74 35.55 L 292.8 34.82 C 292.8 34.82 293.03 34.65 293.34 34.63 C 293.34 34.63 293.71 34.6 293.84 34.73 L 294.2 35.09 L 294.84 34.45 L 294.39 34 C 294.39 34 294 33.62 293.31 33.62 C 293.31 33.62 292.98 33.62 292.55 33.91 C 292.55 33.91 292.81 33.27 292.78 32.53 C 292.78 32.53 292.77 32.18 292.19 31.6 C 292.19 31.6 291.22 30.63 290.14 30.79 C 290.14 30.79 289.01 30.95 287.89 32.08 C 287.89 32.08 286.69 33.28 286.64 34.37 C 286.64 34.37 286.59 35.57 287.4 36.38 C 287.4 36.38 288.67 37.66 290.21 36.6 Z "/>
<path transform="matrix(1,0,0,-1,0,400)" d="M 296.03 35.9 L 295.28 36.65 C 295.28 36.65 295.74 36.82 296.13 37.06 C 296.13 37.06 296.53 37.3 296.84 37.61 C 296.84 37.61 297.66 38.43 297.54 39.4 C 297.54 39.4 297.42 40.39 296.36 41.57 C 296.36 41.57 296.47 40.98 296.3 40.43 C 296.3 40.43 296.12 39.88 295.68 39.44 C 295.68 39.44 294.76 38.52 293.67 38.54 C 293.67 38.54 292.59 38.56 291.62 39.52 C 291.62 39.52 290.68 40.46 290.67 41.59 C 290.67 41.59 290.66 42.71 291.58 43.64 C 291.58 43.64 292.64 44.7 294.01 44.44 C 294.01 44.44 295.39 44.19 296.93 42.65 C 296.93 42.65 298.38 41.2 298.55 39.65 C 298.55 39.65 298.73 38.11 297.57 36.95 C 297.57 36.95 297.26 36.64 296.88 36.38 C 296.88 36.38 296.5 36.12 296.03 35.9 M 295.09 40.14 C 295.09 40.14 295.64 40.69 295.59 41.4 C 295.59 41.4 295.53 42.1 294.87 42.77 C 294.87 42.77 294.21 43.43 293.5 43.48 C 293.5 43.48 292.8 43.54 292.24 42.98 C 292.24 42.98 291.68 42.43 291.74 41.72 C 291.74 41.72 291.8 41.01 292.46 40.35 C 292.46 40.35 293.12 39.69 293.82 39.63 C 293.82 39.63 294.53 39.58 295.09 40.14 Z "/>
<path transform="matrix(1,0,0,-1,0,400)" d="M 310.87 29.56 L 309.75 30.32 C 309.75 30.32 308.59 31.11 307.86 30.38 C 307.86 30.38 307.31 29.83 307.52 29.13 C 307.52 29.13 307.76 28.25 308.51 27.51 C 308.51 27.51 309.41 26.61 310.15 26.49 C 310.15 26.49 310.9 26.36 311.39 26.85 C 311.39 26.85 311.94 27.4 311.36 28.57 L 310.87 29.56 M 310.04 31.23 L 309.25 32.84 L 309.92 33.51 L 311.56 30.18 L 312.62 29.45 C 312.62 29.45 312.86 29.29 313.17 29.26 C 313.17 29.26 313.53 29.24 313.67 29.37 L 314.03 29.73 L 314.66 29.09 L 314.21 28.64 C 314.21 28.64 313.83 28.25 313.14 28.25 C 313.14 28.25 312.8 28.26 312.37 28.55 C 312.37 28.55 312.64 27.91 312.61 27.16 C 312.61 27.16 312.6 26.82 312.01 26.23 C 312.01 26.23 311.05 25.27 309.96 25.43 C 309.96 25.43 308.84 25.59 307.72 26.71 C 307.72 26.71 306.51 27.92 306.47 29 C 306.47 29 306.41 30.21 307.22 31.02 C 307.22 31.02 308.5 32.29 310.04 31.23 Z "/>
<path transform="matrix(1,0,0,-1,0,400)" d="M 315.41 31.22 L 316.76 32.57 L 312.1 37.24 L 310.92 35.47 L 310.17 36.22 L 311.34 37.98 L 312.16 38.81 L 317.58 33.39 L 318.93 34.74 L 319.62 34.05 L 316.1 30.53 L 315.41 31.22 Z "/>
<path transform="matrix(1,0,0,-1,0,400)" d="M 317.5 43.05 C 317.5 43.05 316.86 42.41 317.16 41.46 C 317.16 41.46 317.47 40.51 318.73 39.25 C 318.73 39.25 319.99 38 320.94 37.69 C 320.94 37.69 321.89 37.38 322.52 38.02 C 322.52 38.02 323.17 38.66 322.86 39.61 C 322.86 39.61 322.55 40.56 321.3 41.82 C 321.3 41.82 320.04 43.08 319.09 43.38 C 319.09 43.38 318.14 43.69 317.5 43.05 M 316.84 43.7 C 316.84 43.7 317.87 44.73 319.22 44.46 C 319.22 44.46 320.58 44.19 322.12 42.65 C 322.12 42.65 323.67 41.1 323.94 39.74 C 323.94 39.74 324.21 38.39 323.18 37.37 C 323.18 37.37 322.15 36.34 320.8 36.61 C 320.8 36.61 319.44 36.88 317.9 38.42 C 317.9 38.42 316.35 39.97 316.08 41.32 C 316.08 41.32 315.81 42.68 316.84 43.7 Z "/>
<path transform="matrix(1,0,0,-1,0,400)" d="M 338.46 35.42 L 342.29 33.59 L 340.18 38.57 L 340.97 39.37 L 343.7 32.93 L 345.45 31.19 L 344.69 30.44 L 342.95 32.18 L 338.33 34.4 C 338.33 34.4 337.63 34.74 337.24 34.35 L 337.04 34.15 L 336.39 34.79 L 336.68 35.08 C 336.68 35.08 337.49 35.88 338.46 35.42 Z "/>
<path transform="matrix(1,0,0,-1,0,400)" d="M 346.15 36.77 L 347.5 38.12 L 342.84 42.78 L 341.66 41.02 L 340.91 41.77 L 342.08 43.53 L 342.9 44.36 L 348.32 38.94 L 349.67 40.29 L 350.36 39.6 L 346.85 36.08 L 346.15 36.77 Z "/>
<path transform="matrix(1,0,0,-1,0,400)" d="M 363.72 35.48 L 367.55 33.65 L 365.43 38.64 L 366.23 39.44 L 368.96 33 L 370.7 31.26 L 369.95 30.5 L 368.21 32.25 L 363.58 34.47 C 363.58 34.47 362.89 34.8 362.5 34.41 L 362.3 34.21 L 361.65 34.86 L 361.94 35.14 C 361.94 35.14 362.74 35.95 363.72 35.48 Z "/>
<path transform="matrix(1,0,0,-1,0,400)" d="M 371.98 37.41 L 374.86 40.29 L 375.56 39.6 L 371.68 35.72 L 370.98 36.41 C 370.98 36.41 370.96 37.37 370.96 39 C 370.96 39 370.95 40.64 370.92 41.08 C 370.92 41.08 370.87 41.92 370.72 42.39 C 370.72 42.39 370.57 42.86 370.27 43.16 C 370.27 43.16 369.78 43.64 369.13 43.61 C 369.13 43.61 368.48 43.57 367.94 43.03 C 367.94 43.03 367.55 42.64 367.25 42.07 C 367.25 42.07 366.95 41.5 366.74 40.74 L 365.9 41.57 C 365.9 41.57 366.2 42.27 366.53 42.81 C 366.53 42.81 366.86 43.34 367.22 43.7 C 367.22 43.7 368.17 44.65 369.21 44.74 C 369.21 44.74 370.25 44.83 371.05 44.04 C 371.05 44.04 371.42 43.66 371.62 43.18 C 371.62 43.18 371.82 42.71 371.9 41.88 C 371.9 41.88 371.92 41.65 371.94 40.54 C 371.94 40.54 371.95 39.42 371.98 37.41 Z "/>
<path transform="matrix(1,0,0,-1,0,400)" d="M 388.74 35.32 L 392.58 33.49 L 390.46 38.47 L 391.25 39.27 L 393.98 32.83 L 395.73 31.09 L 394.97 30.34 L 393.23 32.08 L 388.61 34.3 C 388.61 34.3 387.91 34.63 387.52 34.24 L 387.32 34.04 L 386.68 34.69 L 386.96 34.98 C 386.96 34.98 387.77 35.78 388.74 35.32 Z "/>
<path transform="matrix(1,0,0,-1,0,400)" d="M 396.19 41.63 C 396.19 41.63 396.91 42.1 397.65 42.03 C 397.65 42.03 398.38 41.96 398.97 41.37 C 398.97 41.37 399.88 40.47 399.75 39.35 C 399.75 39.35 399.62 38.23 398.48 37.09 C 398.48 37.09 398.09 36.7 397.61 36.37 C 397.61 36.37 397.13 36.04 396.54 35.76 L 395.74 36.56 C 395.74 36.56 396.29 36.7 396.8 37.01 C 396.8 37.01 397.31 37.31 397.76 37.76 C 397.76 37.76 398.53 38.54 398.63 39.25 C 398.63 39.25 398.73 39.96 398.15 40.55 C 398.15 40.55 397.61 41.09 396.93 41.01 C 396.93 41.01 396.24 40.94 395.57 40.27 L 394.86 39.56 L 394.18 40.23 L 394.92 40.98 C 394.92 40.98 395.53 41.59 395.61 42.15 C 395.61 42.15 395.69 42.72 395.23 43.18 C 395.23 43.18 394.76 43.65 394.18 43.57 C 394.18 43.57 393.59 43.49 392.97 42.87 C 392.97 42.87 392.63 42.53 392.31 42.06 C 392.31 42.06 392 41.6 391.69 40.98 L 390.95 41.72 C 390.95 41.72 391.29 42.32 391.63 42.79 C 391.63 42.79 391.98 43.27 392.35 43.64 C 392.35 43.64 393.29 44.58 394.27 44.7 C 394.27 44.7 395.24 44.82 395.97 44.09 C 395.97 44.09 396.48 43.58 396.54 42.94 C 396.54 42.94 396.59 42.3 396.19 41.63 Z "/>
<path transform="matrix(1,0,0,-1,0,400)" d="M 413.73 35.12 L 417.57 33.29 L 415.45 38.27 L 416.25 39.07 L 418.97 32.63 L 420.72 30.89 L 419.97 30.14 L 418.22 31.88 L 413.6 34.1 C 413.6 34.1 412.9 34.43 412.51 34.04 L 412.31 33.84 L 411.67 34.49 L 411.95 34.78 C 411.95 34.78 412.76 35.58 413.73 35.12 Z "/>
<path transform="matrix(1,0,0,-1,0,400)" d="M 418.86 43.29 L 420.03 37.94 L 422.12 40.03 L 418.86 43.29 M 417.92 43.79 L 418.96 44.83 L 422.94 40.85 L 423.81 41.72 L 424.5 41.04 L 423.63 40.17 L 425.07 38.72 L 424.25 37.9 L 422.8 39.34 L 420.05 36.58 L 419.25 37.38 L 417.92 43.79 Z "/>
<path transform="matrix(1,0,0,-1,0,400)" d="M 439.19 35.38 L 443.02 33.55 L 440.9 38.53 L 441.7 39.33 L 444.43 32.89 L 446.17 31.15 L 445.42 30.4 L 443.68 32.14 L 439.05 34.36 C 439.05 34.36 438.36 34.69 437.97 34.31 L 437.77 34.1 L 437.12 34.75 L 437.41 35.04 C 437.41 35.04 438.21 35.84 439.19 35.38 Z "/>
<path transform="matrix(1,0,0,-1,0,400)" d="M 441.33 42.01 L 444.57 45.26 L 445.27 44.56 L 442.78 42.07 L 444.28 40.57 C 444.28 40.57 444.4 40.82 444.55 41.02 C 444.55 41.02 444.69 41.24 444.87 41.42 C 444.87 41.42 445.9 42.44 447.06 42.48 C 447.06 42.48 448.21 42.51 449.17 41.56 C 449.17 41.56 450.16 40.57 450.09 39.41 C 450.09 39.41 450.02 38.25 448.91 37.13 C 448.91 37.13 448.52 36.75 448.05 36.41 C 448.05 36.41 447.59 36.08 447.04 35.79 L 446.2 36.62 C 446.2 36.62 446.77 36.79 447.26 37.08 C 447.26 37.08 447.76 37.37 448.19 37.81 C 448.19 37.81 448.9 38.52 448.94 39.31 C 448.94 39.31 448.98 40.09 448.34 40.73 C 448.34 40.73 447.71 41.37 446.92 41.33 C 446.92 41.33 446.13 41.29 445.43 40.58 C 445.43 40.58 445.1 40.25 444.84 39.84 C 444.84 39.84 444.58 39.44 444.4 38.94 L 441.33 42.01 Z "/>
<path transform="matrix(1,0,0,-1,0,400)" d="M 464.17 35.17 L 468.01 33.34 L 465.89 38.33 L 466.69 39.13 L 469.42 32.69 L 471.16 30.95 L 470.41 30.19 L 468.66 31.94 L 464.04 34.15 C 464.04 34.15 463.34 34.49 462.95 34.1 L 462.75 33.9 L 462.11 34.55 L 462.39 34.83 C 462.39 34.83 463.2 35.64 464.17 35.17 Z "/>
<path transform="matrix(1,0,0,-1,0,400)" d="M 470.9 40.94 C 470.9 40.94 470.34 40.39 470.4 39.68 C 470.4 39.68 470.45 38.97 471.12 38.31 C 471.12 38.31 471.78 37.65 472.48 37.59 C 472.48 37.59 473.19 37.54 473.75 38.09 C 473.75 38.09 474.31 38.65 474.25 39.36 C 474.25 39.36 474.19 40.07 473.53 40.73 C 473.53 40.73 472.87 41.39 472.16 41.44 C 472.16 41.44 471.46 41.5 470.9 40.94 M 469.95 45.17 L 470.7 44.42 C 470.7 44.42 470.25 44.26 469.85 44.02 C 469.85 44.02 469.46 43.78 469.15 43.47 C 469.15 43.47 468.33 42.65 468.45 41.66 C 468.45 41.66 468.57 40.68 469.62 39.5 C 469.62 39.5 469.51 40.1 469.69 40.65 C 469.69 40.65 469.86 41.21 470.3 41.65 C 470.3 41.65 471.22 42.57 472.31 42.54 C 472.31 42.54 473.4 42.52 474.36 41.56 C 474.36 41.56 475.3 40.62 475.32 39.49 C 475.32 39.49 475.33 38.36 474.4 37.44 C 474.4 37.44 473.34 36.38 471.97 36.63 C 471.97 36.63 470.6 36.88 469.06 38.43 C 469.06 38.43 467.61 39.87 467.44 41.42 C 467.44 41.42 467.26 42.97 468.42 44.13 C 468.42 44.13 468.73 44.44 469.1 44.7 C 469.1 44.7 469.49 44.95 469.95 45.17 Z "/>
<path transform="matrix(1,0,0,-1,0,400)" d="M 489.55 35.36 L 493.39 33.53 L 491.27 38.52 L 492.07 39.31 L 494.8 32.88 L 496.54 31.13 L 495.79 30.38 L 494.04 32.12 L 489.42 34.34 C 489.42 34.34 488.72 34.68 488.33 34.29 L 488.13 34.09 L 487.49 34.74 L 487.77 35.02 C 487.77 35.02 488.58 35.83 489.55 35.36 Z "/>
<path transform="matrix(1,0,0,-1,0,400)" d="M 491.48 41.78 L 495.41 45.71 L 495.76 45.35 L 499.3 37.38 L 498.43 36.52 L 495.11 44.02 L 492.17 41.08 L 491.48 41.78 Z "/>
<path transform="matrix(1,0,0,-1,0,400)" d="M 514.6 35.22 L 518.44 33.39 L 516.32 38.37 L 517.11 39.17 L 519.84 32.73 L 521.59 30.99 L 520.83 30.24 L 519.09 31.98 L 514.47 34.2 C 514.47 34.2 513.77 34.53 513.38 34.15 L 513.18 33.95 L 512.54 34.59 L 512.82 34.88 C 512.82 34.88 513.63 35.68 514.6 35.22 Z "/>
<path transform="matrix(1,0,0,-1,0,400)" d="M 521.71 40.4 C 521.71 40.4 521.12 39.81 521.1 39.16 C 521.1 39.16 521.08 38.51 521.63 37.96 C 521.63 37.96 522.18 37.4 522.83 37.42 C 522.83 37.42 523.49 37.45 524.08 38.04 C 524.08 38.04 524.66 38.63 524.69 39.28 C 524.69 39.28 524.71 39.94 524.16 40.49 C 524.16 40.49 523.61 41.04 522.95 41.02 C 522.95 41.02 522.3 41 521.71 40.4 M 520.53 39.93 C 520.53 39.93 519.87 39.53 519.21 39.59 C 519.21 39.59 518.55 39.66 518.02 40.19 C 518.02 40.19 517.29 40.92 517.38 41.86 C 517.38 41.86 517.48 42.81 518.39 43.72 C 518.39 43.72 519.3 44.63 520.25 44.73 C 520.25 44.73 521.19 44.82 521.93 44.09 C 521.93 44.09 522.45 43.57 522.52 42.9 C 522.52 42.9 522.59 42.24 522.19 41.59 C 522.19 41.59 522.93 42.04 523.66 41.97 C 523.66 41.97 524.4 41.9 524.99 41.32 C 524.99 41.32 525.88 40.43 525.81 39.41 C 525.81 39.41 525.74 38.39 524.73 37.38 C 524.73 37.38 523.72 36.37 522.7 36.3 C 522.7 36.3 521.69 36.24 520.8 37.12 C 520.8 37.12 520.21 37.71 520.14 38.45 C 520.14 38.45 520.07 39.19 520.53 39.93 M 518.92 40.93 C 518.92 40.93 519.4 40.46 519.96 40.48 C 519.96 40.48 520.52 40.52 521.06 41.05 C 521.06 41.05 521.59 41.59 521.62 42.15 C 521.62 42.15 521.66 42.72 521.19 43.19 C 521.19 43.19 520.71 43.67 520.14 43.63 C 520.14 43.63 519.58 43.6 519.05 43.07 C 519.05 43.07 518.51 42.53 518.48 41.97 C 518.48 41.97 518.45 41.41 518.92 40.93 Z "/>
<path transform="matrix(1,0,0,-1,0,400)" d="M 539.81 35.23 L 543.64 33.41 L 541.52 38.39 L 542.32 39.19 L 545.05 32.75 L 546.8 31.01 L 546.04 30.25 L 544.3 32 L 539.68 34.22 C 539.68 34.22 538.98 34.55 538.59 34.16 L 538.39 33.96 L 537.74 34.61 L 538.03 34.89 C 538.03 34.89 538.84 35.7 539.81 35.23 Z "/>
<path transform="matrix(1,0,0,-1,0,400)" d="M 547.95 35.9 L 547.2 36.65 C 547.2 36.65 547.65 36.82 548.05 37.06 C 548.05 37.06 548.45 37.3 548.76 37.61 C 548.76 37.61 549.57 38.43 549.46 39.4 C 549.46 39.4 549.34 40.39 548.28 41.57 C 548.28 41.57 548.39 40.98 548.22 40.43 C 548.22 40.43 548.04 39.88 547.6 39.44 C 547.6 39.44 546.68 38.52 545.59 38.54 C 545.59 38.54 544.5 38.56 543.54 39.52 C 543.54 39.52 542.6 40.46 542.59 41.59 C 542.59 41.59 542.58 42.71 543.5 43.64 C 543.5 43.64 544.56 44.7 545.93 44.44 C 545.93 44.44 547.3 44.19 548.85 42.65 C 548.85 42.65 550.29 41.2 550.47 39.65 C 550.47 39.65 550.65 38.11 549.49 36.95 C 549.49 36.95 549.18 36.64 548.8 36.38 C 548.8 36.38 548.42 36.12 547.95 35.9 M 547 40.14 C 547 40.14 547.56 40.69 547.5 41.4 C 547.5 41.4 547.45 42.1 546.79 42.77 C 546.79 42.77 546.13 43.43 545.42 43.48 C 545.42 43.48 544.71 43.54 544.16 42.98 C 544.16 42.98 543.6 42.43 543.66 41.72 C 543.66 41.72 543.71 41.01 544.37 40.35 C 544.37 40.35 545.04 39.69 545.74 39.63 C 545.74 39.63 546.45 39.58 547 40.14 Z "/>
<path transform="matrix(1,0,0,-1,0,400)" stroke-width=".5" stroke-linecap="round" stroke-linejoin="round" fill="none" stroke="#000000" stroke-opacity=".0980392" d="M 56.05 52.03 L 588.19 52.03 "/>
<path transform="matrix(1,0,0,-1,0,400)" stroke-width=".5" stroke-linecap="round" stroke-linejoin="round" fill="none" stroke="#000000" stroke-opacity=".0980392" d="M 56.05 119.26 L 588.19 119.26 "/>
<path transform="matrix(1,0,0,-1,0,400)" stroke-width=".5" stroke-linecap="round" stroke-linejoin="round" fill="none" stroke="#000000" stroke-opacity=".0980392" d="M 56.05 186.5 L 588.19 186.5 "/>
<path transform="matrix(1,0,0,-1,0,400)" stroke-width=".5" stroke-linecap="round" stroke-linejoin="round" fill="none" stroke="#000000" stroke-opacity=".0980392" d="M 56.05 253.73 L 588.19 253.73 "/>
<path transform="matrix(1,0,0,-1,0,400)" stroke-width=".5" stroke-linecap="round" stroke-linejoin="round" fill="none" stroke="#000000" stroke-opacity=".0980392" d="M 56.05 320.96 L 588.19 320.96 "/>
<path transform="matrix(1,0,0,-1,0,400)" stroke-width=".5" stroke-linecap="round" stroke-linejoin="round" fill="none" stroke="#000000" stroke-opacity=".0980392" d="M 56.05 388.19 L 588.19 388.19 "/>
<path transform="matrix(1,0,0,-1,0,400)" stroke-width="1" stroke-linecap="round" stroke-linejoin="round" fill="none" stroke="#000000" d="M 56.05 52.03 L 56.05 388.19 "/>
<path transform="matrix(1,0,0,-1,0,400)" stroke-width="1" stroke-linecap="round" stroke-linejoin="round" fill="none" stroke="#000000" d="M 588.19 52.03 L 588.19 388.19 "/>
<path transform="matrix(1,0,0,-1,0,400)" stroke-width="1" stroke-linecap="round" stroke-linejoin="round" fill="none" stroke="#000000" d="M 56.05 52.03 L 60.77 52.03 "/>
<path transform="matrix(1,0,0,-1,0,400)" stroke-width="1" stroke-linecap="round" stroke-linejoin="round" fill="none" stroke="#000000" d="M 56.05 119.26 L 60.77 119.26 "/>
<path transform="matrix(1,0,0,-1,0,400)" stroke-width="1" stroke-linecap="round" stroke-linejoin="round" fill="none" stroke="#000000" d="M 56.05 186.5 L 60.77 186.5 "/>
<path transform="matrix(1,0,0,-1,0,400)" stroke-width="1" stroke-linecap="round" stroke-linejoin="round" fill="none" stroke="#000000" d="M 56.05 253.73 L 60.77 253.73 "/>
<path transform="matrix(1,0,0,-1,0,400)" stroke-width="1" stroke-linecap="round" stroke-linejoin="round" fill="none" stroke="#000000" d="M 56.05 320.96 L 60.77 320.96 "/>
<path transform="matrix(1,0,0,-1,0,400)" stroke-width="1" stroke-linecap="round" stroke-linejoin="round" fill="none" stroke="#000000" d="M 56.05 388.19 L 60.77 388.19 "/>
<path transform="matrix(1,0,0,-1,0,400)" d="M 32.75 55.58 C 32.75 55.58 31.85 55.58 31.39 54.69 C 31.39 54.69 30.94 53.81 30.94 52.02 C 30.94 52.02 30.94 50.25 31.39 49.36 C 31.39 49.36 31.85 48.47 32.75 48.47 C 32.75 48.47 33.66 48.47 34.11 49.36 C 34.11 49.36 34.57 50.25 34.57 52.02 C 34.57 52.02 34.57 53.81 34.11 54.69 C 34.11 54.69 33.66 55.58 32.75 55.58 M 32.75 56.51 C 32.75 56.51 34.21 56.51 34.97 55.36 C 34.97 55.36 35.74 54.21 35.74 52.02 C 35.74 52.02 35.74 49.84 34.97 48.69 C 34.97 48.69 34.21 47.55 32.75 47.55 C 32.75 47.55 31.3 47.55 30.53 48.69 C 30.53 48.69 29.77 49.84 29.77 52.02 C 29.77 52.02 29.77 54.21 30.53 55.36 C 30.53 55.36 31.3 56.51 32.75 56.51 Z "/>
<path transform="matrix(1,0,0,-1,0,400)" d="M 37.79 49.18 L 39.01 49.18 L 39.01 47.71 L 37.79 47.71 L 37.79 49.18 Z "/>
<path transform="matrix(1,0,0,-1,0,400)" d="M 44.06 55.58 C 44.06 55.58 43.16 55.58 42.7 54.69 C 42.7 54.69 42.25 53.81 42.25 52.02 C 42.25 52.02 42.25 50.25 42.7 49.36 C 42.7 49.36 43.16 48.47 44.06 48.47 C 44.06 48.47 44.97 48.47 45.42 49.36 C 45.42 49.36 45.88 50.25 45.88 52.02 C 45.88 52.02 45.88 53.81 45.42 54.69 C 45.42 54.69 44.97 55.58 44.06 55.58 M 44.06 56.51 C 44.06 56.51 45.51 56.51 46.28 55.36 C 46.28 55.36 47.05 54.21 47.05 52.02 C 47.05 52.02 47.05 49.84 46.28 48.69 C 46.28 48.69 45.51 47.55 44.06 47.55 C 44.06 47.55 42.61 47.55 41.84 48.69 C 41.84 48.69 41.07 49.84 41.07 52.02 C 41.07 52.02 41.07 54.21 41.84 55.36 C 41.84 55.36 42.61 56.51 44.06 56.51 Z "/>
<path transform="matrix(1,0,0,-1,0,400)" d="M 33.15 122.81 C 33.15 122.81 32.25 122.81 31.79 121.92 C 31.79 121.92 31.34 121.04 31.34 119.26 C 31.34 119.26 31.34 117.48 31.79 116.59 C 31.79 116.59 32.25 115.7 33.15 115.7 C 33.15 115.7 34.06 115.7 34.51 116.59 C 34.51 116.59 34.97 117.48 34.97 119.26 C 34.97 119.26 34.97 121.04 34.51 121.92 C 34.51 121.92 34.06 122.81 33.15 122.81 M 33.15 123.74 C 33.15 123.74 34.6 123.74 35.37 122.59 C 35.37 122.59 36.14 121.44 36.14 119.26 C 36.14 119.26 36.14 117.07 35.37 115.92 C 35.37 115.92 34.6 114.78 33.15 114.78 C 33.15 114.78 31.7 114.78 30.93 115.92 C 30.93 115.92 30.17 117.07 30.17 119.26 C 30.17 119.26 30.17 121.44 30.93 122.59 C 30.93 122.59 31.7 123.74 33.15 123.74 Z "/>
<path transform="matrix(1,0,0,-1,0,400)" d="M 38.19 116.41 L 39.41 116.41 L 39.41 114.94 L 38.19 114.94 L 38.19 116.41 Z "/>
<path transform="matrix(1,0,0,-1,0,400)" d="M 42.97 115.93 L 47.05 115.93 L 47.05 114.94 L 41.56 114.94 L 41.56 115.93 C 41.56 115.93 42.23 116.62 43.37 117.77 C 43.37 117.77 44.52 118.94 44.82 119.27 C 44.82 119.27 45.38 119.9 45.6 120.34 C 45.6 120.34 45.83 120.78 45.83 121.2 C 45.83 121.2 45.83 121.89 45.34 122.32 C 45.34 122.32 44.86 122.76 44.08 122.76 C 44.08 122.76 43.53 122.76 42.92 122.57 C 42.92 122.57 42.31 122.37 41.62 121.99 L 41.62 123.17 C 41.62 123.17 42.32 123.45 42.94 123.6 C 42.94 123.6 43.55 123.74 44.06 123.74 C 44.06 123.74 45.4 123.74 46.2 123.07 C 46.2 123.07 47 122.4 47 121.28 C 47 121.28 47 120.74 46.8 120.26 C 46.8 120.26 46.6 119.79 46.07 119.14 C 46.07 119.14 45.93 118.97 45.15 118.17 C 45.15 118.17 44.38 117.37 42.97 115.93 Z "/>
<path transform="matrix(1,0,0,-1,0,400)" d="M 32.63 190.05 C 32.63 190.05 31.73 190.05 31.27 189.15 C 31.27 189.15 30.82 188.27 30.82 186.49 C 30.82 186.49 30.82 184.71 31.27 183.82 C 31.27 183.82 31.73 182.93 32.63 182.93 C 32.63 182.93 33.54 182.93 33.99 183.82 C 33.99 183.82 34.45 184.71 34.45 186.49 C 34.45 186.49 34.45 188.27 33.99 189.15 C 33.99 189.15 33.54 190.05 32.63 190.05 M 32.63 190.97 C 32.63 190.97 34.08 190.97 34.85 189.82 C 34.85 189.82 35.62 188.67 35.62 186.49 C 35.62 186.49 35.62 184.31 34.85 183.15 C 34.85 183.15 34.08 182.01 32.63 182.01 C 32.63 182.01 31.18 182.01 30.41 183.15 C 30.41 183.15 29.65 184.31 29.65 186.49 C 29.65 186.49 29.65 188.67 30.41 189.82 C 30.41 189.82 31.18 190.97 32.63 190.97 Z "/>
<path transform="matrix(1,0,0,-1,0,400)" d="M 37.67 183.65 L 38.89 183.65 L 38.89 182.18 L 37.67 182.18 L 37.67 183.65 Z "/>
<path transform="matrix(1,0,0,-1,0,400)" d="M 44.65 189.8 L 41.7 185.18 L 44.65 185.18 L 44.65 189.8 M 44.34 190.82 L 45.81 190.82 L 45.81 185.18 L 47.05 185.18 L 47.05 184.21 L 45.81 184.21 L 45.81 182.18 L 44.65 182.18 L 44.65 184.21 L 40.75 184.21 L 40.75 185.34 L 44.34 190.82 Z "/>
<path transform="matrix(1,0,0,-1,0,400)" d="M 32.71 257.28 C 32.71 257.28 31.81 257.28 31.35 256.39 C 31.35 256.39 30.9 255.5 30.9 253.72 C 30.9 253.72 30.9 251.94 31.35 251.05 C 31.35 251.05 31.81 250.16 32.71 250.16 C 32.71 250.16 33.62 250.16 34.07 251.05 C 34.07 251.05 34.53 251.94 34.53 253.72 C 34.53 253.72 34.53 255.5 34.07 256.39 C 34.07 256.39 33.62 257.28 32.71 257.28 M 32.71 258.2 C 32.71 258.2 34.16 258.2 34.93 257.05 C 34.93 257.05 35.7 255.91 35.7 253.72 C 35.7 253.72 35.7 251.54 34.93 250.38 C 34.93 250.38 34.16 249.24 32.71 249.24 C 32.71 249.24 31.26 249.24 30.49 250.38 C 30.49 250.38 29.73 251.54 29.73 253.72 C 29.73 253.72 29.73 255.91 30.49 257.05 C 30.49 257.05 31.26 258.2 32.71 258.2 Z "/>
<path transform="matrix(1,0,0,-1,0,400)" d="M 37.75 250.88 L 38.97 250.88 L 38.97 249.41 L 37.75 249.41 L 37.75 250.88 Z "/>
<path transform="matrix(1,0,0,-1,0,400)" d="M 44.16 254.19 C 44.16 254.19 43.38 254.19 42.91 253.65 C 42.91 253.65 42.46 253.12 42.46 252.18 C 42.46 252.18 42.46 251.25 42.91 250.7 C 42.91 250.7 43.38 250.16 44.16 250.16 C 44.16 250.16 44.95 250.16 45.41 250.7 C 45.41 250.7 45.87 251.25 45.87 252.18 C 45.87 252.18 45.87 253.12 45.41 253.65 C 45.41 253.65 44.95 254.19 44.16 254.19 M 46.49 257.86 L 46.49 256.79 C 46.49 256.79 46.05 257 45.59 257.11 C 45.59 257.11 45.15 257.22 44.71 257.22 C 44.71 257.22 43.55 257.22 42.94 256.44 C 42.94 256.44 42.33 255.66 42.24 254.08 C 42.24 254.08 42.58 254.58 43.1 254.85 C 43.1 254.85 43.61 255.12 44.23 255.12 C 44.23 255.12 45.54 255.12 46.29 254.33 C 46.29 254.33 47.05 253.54 47.05 252.18 C 47.05 252.18 47.05 250.85 46.26 250.04 C 46.26 250.04 45.47 249.24 44.16 249.24 C 44.16 249.24 42.67 249.24 41.87 250.38 C 41.87 250.38 41.08 251.54 41.08 253.72 C 41.08 253.72 41.08 255.77 42.05 256.98 C 42.05 256.98 43.02 258.2 44.66 258.2 C 44.66 258.2 45.1 258.2 45.55 258.12 C 45.55 258.12 46 258.03 46.49 257.86 Z "/>
<path transform="matrix(1,0,0,-1,0,400)" d="M 32.78 324.51 C 32.78 324.51 31.87 324.51 31.42 323.62 C 31.42 323.62 30.96 322.73 30.96 320.95 C 30.96 320.95 30.96 319.17 31.42 318.28 C 31.42 318.28 31.87 317.4 32.78 317.4 C 32.78 317.4 33.68 317.4 34.14 318.28 C 34.14 318.28 34.59 319.17 34.59 320.95 C 34.59 320.95 34.59 322.73 34.14 323.62 C 34.14 323.62 33.68 324.51 32.78 324.51 M 32.78 325.43 C 32.78 325.43 34.23 325.43 34.99 324.28 C 34.99 324.28 35.76 323.14 35.76 320.95 C 35.76 320.95 35.76 318.77 34.99 317.62 C 34.99 317.62 34.23 316.47 32.78 316.47 C 32.78 316.47 31.32 316.47 30.55 317.62 C 30.55 317.62 29.79 318.77 29.79 320.95 C 29.79 320.95 29.79 323.14 30.55 324.28 C 30.55 324.28 31.32 325.43 32.78 325.43 Z "/>
<path transform="matrix(1,0,0,-1,0,400)" d="M 37.82 318.11 L 39.04 318.11 L 39.04 316.64 L 37.82 316.64 L 37.82 318.11 Z "/>
<path transform="matrix(1,0,0,-1,0,400)" d="M 44.08 320.74 C 44.08 320.74 43.25 320.74 42.77 320.3 C 42.77 320.3 42.3 319.85 42.3 319.07 C 42.3 319.07 42.3 318.29 42.77 317.84 C 42.77 317.84 43.25 317.4 44.08 317.4 C 44.08 317.4 44.92 317.4 45.4 317.84 C 45.4 317.84 45.88 318.29 45.88 319.07 C 45.88 319.07 45.88 319.85 45.4 320.3 C 45.4 320.3 44.92 320.74 44.08 320.74 M 42.91 321.24 C 42.91 321.24 42.16 321.42 41.74 321.94 C 41.74 321.94 41.32 322.45 41.32 323.19 C 41.32 323.19 41.32 324.23 42.06 324.83 C 42.06 324.83 42.8 325.43 44.08 325.43 C 44.08 325.43 45.37 325.43 46.11 324.83 C 46.11 324.83 46.84 324.23 46.84 323.19 C 46.84 323.19 46.84 322.45 46.42 321.94 C 46.42 321.94 46 321.42 45.26 321.24 C 45.26 321.24 46.1 321.04 46.57 320.47 C 46.57 320.47 47.05 319.9 47.05 319.07 C 47.05 319.07 47.05 317.81 46.28 317.14 C 46.28 317.14 45.51 316.47 44.08 316.47 C 44.08 316.47 42.65 316.47 41.88 317.14 C 41.88 317.14 41.12 317.81 41.12 319.07 C 41.12 319.07 41.12 319.9 41.6 320.47 C 41.6 320.47 42.07 321.04 42.91 321.24 M 42.49 323.08 C 42.49 323.08 42.49 322.41 42.9 322.04 C 42.9 322.04 43.33 321.66 44.08 321.66 C 44.08 321.66 44.84 321.66 45.26 322.04 C 45.26 322.04 45.69 322.41 45.69 323.08 C 45.69 323.08 45.69 323.76 45.26 324.13 C 45.26 324.13 44.84 324.51 44.08 324.51 C 44.08 324.51 43.33 324.51 42.9 324.13 C 42.9 324.13 42.49 323.76 42.49 323.08 Z "/>
<path transform="matrix(1,0,0,-1,0,400)" d="M 30.46 384.85 L 32.36 384.85 L 32.36 391.44 L 30.29 391.03 L 30.29 392.09 L 32.35 392.51 L 33.52 392.51 L 33.52 384.85 L 35.43 384.85 L 35.43 383.87 L 30.46 383.87 L 30.46 384.85 Z "/>
<path transform="matrix(1,0,0,-1,0,400)" d="M 37.79 385.34 L 39.01 385.34 L 39.01 383.87 L 37.79 383.87 L 37.79 385.34 Z "/>
<path transform="matrix(1,0,0,-1,0,400)" d="M 44.06 391.74 C 44.06 391.74 43.16 391.74 42.7 390.85 C 42.7 390.85 42.25 389.96 42.25 388.18 C 42.25 388.18 42.25 386.4 42.7 385.51 C 42.7 385.51 43.16 384.63 44.06 384.63 C 44.06 384.63 44.97 384.63 45.42 385.51 C 45.42 385.51 45.88 386.4 45.88 388.18 C 45.88 388.18 45.88 389.96 45.42 390.85 C 45.42 390.85 44.97 391.74 44.06 391.74 M 44.06 392.67 C 44.06 392.67 45.51 392.67 46.28 391.51 C 46.28 391.51 47.05 390.37 47.05 388.18 C 47.05 388.18 47.05 386 46.28 384.85 C 46.28 384.85 45.51 383.7 44.06 383.7 C 44.06 383.7 42.61 383.7 41.84 384.85 C 41.84 384.85 41.07 386 41.07 388.18 C 41.07 388.18 41.07 390.37 41.84 391.51 C 41.84 391.51 42.61 392.67 44.06 392.67 Z "/>
<path transform="matrix(1,0,0,-1,0,400)" d="M 3.8 95.13 L 3.8 106.1 L 5.27 106.1 L 5.27 101.5 L 16.76 101.5 L 16.76 99.73 L 5.27 99.73 L 5.27 95.13 L 3.8 95.13 Z "/>
<path transform="matrix(1,0,0,-1,0,400)" d="M 8.15 108.47 C 8.15 108.47 8.15 107.18 9.16 106.44 C 9.16 106.44 10.16 105.69 11.9 105.69 C 11.9 105.69 13.65 105.69 14.66 106.43 C 14.66 106.43 15.65 107.17 15.65 108.47 C 15.65 108.47 15.65 109.74 14.65 110.49 C 14.65 110.49 13.64 111.24 11.9 111.24 C 11.9 111.24 10.18 111.24 9.17 110.49 C 9.17 110.49 8.15 109.74 8.15 108.47 M 6.8 108.47 C 6.8 108.47 6.8 110.55 8.15 111.74 C 8.15 111.74 9.51 112.93 11.9 112.93 C 11.9 112.93 14.29 112.93 15.65 111.74 C 15.65 111.74 17.01 110.55 17.01 108.47 C 17.01 108.47 17.01 106.37 15.65 105.19 C 15.65 105.19 14.29 104 11.9 104 C 11.9 104 9.51 104 8.15 105.19 C 8.15 105.19 6.8 106.37 6.8 108.47 Z "/>
<path transform="matrix(1,0,0,-1,0,400)" d="M 4.27 117.16 L 7.03 117.16 L 7.03 120.45 L 8.28 120.45 L 8.28 117.16 L 13.55 117.16 C 13.55 117.16 14.74 117.16 15.08 117.48 C 15.08 117.48 15.42 117.81 15.42 118.81 L 15.42 120.45 L 16.76 120.45 L 16.76 118.81 C 16.76 118.81 16.76 116.96 16.07 116.25 C 16.07 116.25 15.38 115.55 13.55 115.55 L 8.28 115.55 L 8.28 114.38 L 7.03 114.38 L 7.03 115.55 L 4.27 115.55 L 4.27 117.16 Z "/>
<path transform="matrix(1,0,0,-1,0,400)" d="M 11.87 126.96 C 11.87 126.96 11.87 125.03 12.31 124.28 C 12.31 124.28 12.76 123.54 13.82 123.54 C 13.82 123.54 14.67 123.54 15.18 124.09 C 15.18 124.09 15.67 124.66 15.67 125.62 C 15.67 125.62 15.67 126.95 14.73 127.75 C 14.73 127.75 13.79 128.55 12.23 128.55 L 11.87 128.55 L 11.87 126.96 M 11.21 130.15 L 16.76 130.15 L 16.76 128.55 L 15.28 128.55 C 15.28 128.55 16.17 128.01 16.59 127.19 C 16.59 127.19 17.01 126.37 17.01 125.19 C 17.01 125.19 17.01 123.7 16.18 122.82 C 16.18 122.82 15.33 121.94 13.93 121.94 C 13.93 121.94 12.29 121.94 11.45 123.03 C 11.45 123.03 10.62 124.14 10.62 126.31 L 10.62 128.55 L 10.46 128.55 C 10.46 128.55 9.36 128.55 8.76 127.82 C 8.76 127.82 8.15 127.1 8.15 125.79 C 8.15 125.79 8.15 124.96 8.35 124.17 C 8.35 124.17 8.55 123.38 8.95 122.65 L 7.48 122.65 C 7.48 122.65 7.14 123.53 6.97 124.35 C 6.97 124.35 6.8 125.18 6.8 125.96 C 6.8 125.96 6.8 128.07 7.89 129.11 C 7.89 129.11 8.99 130.15 11.21 130.15 Z "/>
<path transform="matrix(1,0,0,-1,0,400)" d="M 3.25 133.44 L 3.25 135.04 L 16.76 135.04 L 16.76 133.44 L 3.25 133.44 Z "/>
<path transform="matrix(1,0,0,-1,0,400)" d="M 4.99 149.36 C 4.99 149.36 4.99 147.45 6.41 146.32 C 6.41 146.32 7.83 145.2 10.29 145.2 C 10.29 145.2 12.74 145.2 14.16 146.32 C 14.16 146.32 15.59 147.45 15.59 149.36 C 15.59 149.36 15.59 151.27 14.16 152.38 C 14.16 152.38 12.74 153.5 10.29 153.5 C 10.29 153.5 7.83 153.5 6.41 152.38 C 6.41 152.38 4.99 151.27 4.99 149.36 M 3.56 149.36 C 3.56 149.36 3.56 152.09 5.39 153.72 C 5.39 153.72 7.22 155.35 10.29 155.35 C 10.29 155.35 13.35 155.35 15.19 153.72 C 15.19 153.72 17.01 152.09 17.01 149.36 C 17.01 149.36 17.01 146.63 15.19 144.99 C 15.19 144.99 13.36 143.35 10.29 143.35 C 10.29 143.35 7.22 143.35 5.39 144.99 C 5.39 144.99 3.56 146.63 3.56 149.36 Z "/>
<path transform="matrix(1,0,0,-1,0,400)" d="M 8.53 163.66 C 8.53 163.66 8.37 163.39 8.3 163.07 C 8.3 163.07 8.22 162.75 8.22 162.37 C 8.22 162.37 8.22 161.02 9.11 160.29 C 9.11 160.29 9.99 159.57 11.64 159.57 L 16.76 159.57 L 16.76 157.96 L 7.03 157.96 L 7.03 159.57 L 8.55 159.57 C 8.55 159.57 7.66 160.07 7.23 160.88 C 7.23 160.88 6.8 161.69 6.8 162.84 C 6.8 162.84 6.8 163.01 6.83 163.21 C 6.83 163.21 6.84 163.41 6.89 163.65 L 8.53 163.66 Z "/>
<path transform="matrix(1,0,0,-1,0,400)" d="M 8.51 171.42 L 3.25 171.42 L 3.25 173.01 L 16.76 173.01 L 16.76 171.42 L 15.3 171.42 C 15.3 171.42 16.17 170.91 16.59 170.14 C 16.59 170.14 17.01 169.38 17.01 168.3 C 17.01 168.3 17.01 166.54 15.6 165.43 C 15.6 165.43 14.2 164.33 11.9 164.33 C 11.9 164.33 9.61 164.33 8.21 165.43 C 8.21 165.43 6.8 166.54 6.8 168.3 C 6.8 168.3 6.8 169.38 7.23 170.14 C 7.23 170.14 7.64 170.91 8.51 171.42 M 11.9 165.98 C 11.9 165.98 13.67 165.98 14.67 166.7 C 14.67 166.7 15.67 167.42 15.67 168.69 C 15.67 168.69 15.67 169.96 14.67 170.69 C 14.67 170.69 13.67 171.42 11.9 171.42 C 11.9 171.42 10.14 171.42 9.14 170.69 C 9.14 170.69 8.14 169.96 8.14 168.69 C 8.14 168.69 8.14 167.42 9.14 166.7 C 9.14 166.7 10.14 165.98 11.9 165.98 Z "/>
<path transform="matrix(1,0,0,-1,0,400)" d="M 11.5 184.62 L 12.28 184.62 L 12.28 177.28 C 12.28 177.28 13.93 177.38 14.8 178.27 C 14.8 178.27 15.65 179.16 15.65 180.75 C 15.65 180.75 15.65 181.67 15.43 182.53 C 15.43 182.53 15.2 183.4 14.75 184.25 L 16.26 184.25 C 16.26 184.25 16.63 183.39 16.82 182.49 C 16.82 182.49 17.01 181.58 17.01 180.65 C 17.01 180.65 17.01 178.33 15.65 176.96 C 15.65 176.96 14.3 175.61 11.99 175.61 C 11.99 175.61 9.6 175.61 8.21 176.9 C 8.21 176.9 6.8 178.19 6.8 180.38 C 6.8 180.38 6.8 182.34 8.07 183.47 C 8.07 183.47 9.33 184.62 11.5 184.62 M 11.03 183.02 C 11.03 183.02 9.72 183.01 8.94 182.29 C 8.94 182.29 8.15 181.57 8.15 180.39 C 8.15 180.39 8.15 179.06 8.91 178.25 C 8.91 178.25 9.67 177.45 11.04 177.33 L 11.03 183.02 Z "/>
<path transform="matrix(1,0,0,-1,0,400)" d="M 8.53 192.88 C 8.53 192.88 8.37 192.61 8.3 192.29 C 8.3 192.29 8.22 191.97 8.22 191.59 C 8.22 191.59 8.22 190.24 9.11 189.51 C 9.11 189.51 9.99 188.79 11.64 188.79 L 16.76 188.79 L 16.76 187.18 L 7.03 187.18 L 7.03 188.79 L 8.55 188.79 C 8.55 188.79 7.66 189.29 7.23 190.1 C 7.23 190.1 6.8 190.91 6.8 192.06 C 6.8 192.06 6.8 192.22 6.83 192.42 C 6.83 192.42 6.84 192.62 6.89 192.87 L 8.53 192.88 Z "/>
<path transform="matrix(1,0,0,-1,0,400)" d="M 4.22 208.04 L 5.93 208.04 C 5.93 208.04 5.46 207.04 5.22 206.16 C 5.22 206.16 4.99 205.27 4.99 204.45 C 4.99 204.45 4.99 203.01 5.54 202.23 C 5.54 202.23 6.1 201.46 7.12 201.46 C 7.12 201.46 7.98 201.46 8.42 201.97 C 8.42 201.97 8.86 202.49 9.13 203.93 L 9.34 204.99 C 9.34 204.99 9.72 206.96 10.66 207.88 C 10.66 207.88 11.6 208.82 13.18 208.82 C 13.18 208.82 15.06 208.82 16.04 207.55 C 16.04 207.55 17.01 206.3 17.01 203.86 C 17.01 203.86 17.01 202.94 16.8 201.9 C 16.8 201.9 16.59 200.86 16.18 199.75 L 14.38 199.75 C 14.38 199.75 14.98 200.82 15.28 201.84 C 15.28 201.84 15.59 202.87 15.59 203.86 C 15.59 203.86 15.59 205.36 14.99 206.17 C 14.99 206.17 14.4 206.99 13.31 206.99 C 13.31 206.99 12.36 206.99 11.82 206.4 C 11.82 206.4 11.28 205.82 11.01 204.48 L 10.8 203.41 C 10.8 203.41 10.41 201.45 9.58 200.58 C 9.58 200.58 8.74 199.7 7.26 199.7 C 7.26 199.7 5.54 199.7 4.55 200.91 C 4.55 200.91 3.56 202.12 3.56 204.25 C 3.56 204.25 3.56 205.16 3.73 206.11 C 3.73 206.11 3.89 207.05 4.22 208.04 Z "/>
<path transform="matrix(1,0,0,-1,0,400)" d="M 11.5 219.8 L 12.28 219.8 L 12.28 212.46 C 12.28 212.46 13.93 212.56 14.8 213.45 C 14.8 213.45 15.65 214.34 15.65 215.93 C 15.65 215.93 15.65 216.85 15.43 217.71 C 15.43 217.71 15.2 218.58 14.75 219.43 L 16.26 219.43 C 16.26 219.43 16.63 218.57 16.82 217.67 C 16.82 217.67 17.01 216.76 17.01 215.84 C 17.01 215.84 17.01 213.51 15.65 212.15 C 15.65 212.15 14.3 210.79 11.99 210.79 C 11.99 210.79 9.6 210.79 8.21 212.08 C 8.21 212.08 6.8 213.37 6.8 215.56 C 6.8 215.56 6.8 217.52 8.07 218.66 C 8.07 218.66 9.33 219.8 11.5 219.8 M 11.03 218.21 C 11.03 218.21 9.72 218.19 8.94 217.47 C 8.94 217.47 8.15 216.76 8.15 215.58 C 8.15 215.58 8.15 214.24 8.91 213.43 C 8.91 213.43 9.67 212.63 11.04 212.51 L 11.03 218.21 Z "/>
<path transform="matrix(1,0,0,-1,0,400)" d="M 10.89 230.51 L 16.76 230.51 L 16.76 228.91 L 10.94 228.91 C 10.94 228.91 9.56 228.91 8.88 228.37 C 8.88 228.37 8.19 227.83 8.19 226.76 C 8.19 226.76 8.19 225.46 9.01 224.72 C 9.01 224.72 9.84 223.97 11.26 223.97 L 16.76 223.97 L 16.76 222.36 L 7.03 222.36 L 7.03 223.97 L 8.55 223.97 C 8.55 223.97 7.67 224.54 7.23 225.32 C 7.23 225.32 6.8 226.1 6.8 227.11 C 6.8 227.11 6.8 228.79 7.84 229.65 C 7.84 229.65 8.88 230.51 10.89 230.51 Z "/>
<path transform="matrix(1,0,0,-1,0,400)" d="M 7.32 239.89 L 8.83 239.89 C 8.83 239.89 8.48 239.21 8.31 238.48 C 8.31 238.48 8.14 237.75 8.14 236.97 C 8.14 236.97 8.14 235.78 8.5 235.18 C 8.5 235.18 8.87 234.59 9.6 234.59 C 9.6 234.59 10.15 234.59 10.47 235.02 C 10.47 235.02 10.78 235.45 11.07 236.73 L 11.19 237.28 C 11.19 237.28 11.56 238.98 12.23 239.69 C 12.23 239.69 12.89 240.41 14.07 240.41 C 14.07 240.41 15.43 240.41 16.22 239.33 C 16.22 239.33 17.01 238.27 17.01 236.39 C 17.01 236.39 17.01 235.61 16.85 234.76 C 16.85 234.76 16.7 233.92 16.4 232.98 L 14.75 232.98 C 14.75 232.98 15.21 233.87 15.45 234.72 C 15.45 234.72 15.67 235.58 15.67 236.43 C 15.67 236.43 15.67 237.55 15.29 238.16 C 15.29 238.16 14.9 238.77 14.2 238.77 C 14.2 238.77 13.55 238.77 13.2 238.33 C 13.2 238.33 12.85 237.89 12.53 236.41 L 12.4 235.85 C 12.4 235.85 12.09 234.37 11.44 233.71 C 11.44 233.71 10.79 233.05 9.67 233.05 C 9.67 233.05 8.29 233.05 7.55 234.02 C 7.55 234.02 6.8 234.99 6.8 236.78 C 6.8 236.78 6.8 237.67 6.93 238.45 C 6.93 238.45 7.06 239.23 7.32 239.89 Z "/>
<path transform="matrix(1,0,0,-1,0,400)" d="M 7.03 242.95 L 7.03 244.55 L 16.76 244.55 L 16.76 242.95 L 7.03 242.95 M 3.25 242.95 L 3.25 244.55 L 5.27 244.55 L 5.27 242.95 L 3.25 242.95 Z "/>
<path transform="matrix(1,0,0,-1,0,400)" d="M 4.27 249.47 L 7.03 249.47 L 7.03 252.76 L 8.28 252.76 L 8.28 249.47 L 13.55 249.47 C 13.55 249.47 14.74 249.47 15.08 249.79 C 15.08 249.79 15.42 250.12 15.42 251.12 L 15.42 252.76 L 16.76 252.76 L 16.76 251.12 C 16.76 251.12 16.76 249.27 16.07 248.57 C 16.07 248.57 15.38 247.87 13.55 247.87 L 8.28 247.87 L 8.28 246.7 L 7.03 246.7 L 7.03 247.87 L 4.27 247.87 L 4.27 249.47 Z "/>
<path transform="matrix(1,0,0,-1,0,400)" d="M 7.03 254.86 L 7.03 256.46 L 16.76 256.46 L 16.76 254.86 L 7.03 254.86 M 3.25 254.86 L 3.25 256.46 L 5.27 256.46 L 5.27 254.86 L 3.25 254.86 Z "/>
<path transform="matrix(1,0,0,-1,0,400)" d="M 7.03 258.66 L 7.03 260.35 L 15.19 263.39 L 7.03 266.43 L 7.03 268.12 L 16.76 264.47 L 16.76 262.3 L 7.03 258.66 Z "/>
<path transform="matrix(1,0,0,-1,0,400)" d="M 7.03 270.32 L 7.03 271.92 L 16.76 271.92 L 16.76 270.32 L 7.03 270.32 M 3.25 270.32 L 3.25 271.92 L 5.27 271.92 L 5.27 270.32 L 3.25 270.32 Z "/>
<path transform="matrix(1,0,0,-1,0,400)" d="M 4.27 276.84 L 7.03 276.84 L 7.03 280.13 L 8.28 280.13 L 8.28 276.84 L 13.55 276.84 C 13.55 276.84 14.74 276.84 15.08 277.16 C 15.08 277.16 15.42 277.49 15.42 278.49 L 15.42 280.13 L 16.76 280.13 L 16.76 278.49 C 16.76 278.49 16.76 276.64 16.07 275.94 C 16.07 275.94 15.38 275.24 13.55 275.24 L 8.28 275.24 L 8.28 274.06 L 7.03 274.06 L 7.03 275.24 L 4.27 275.24 L 4.27 276.84 Z "/>
<path transform="matrix(1,0,0,-1,0,400)" d="M 17.66 286.28 C 17.66 286.28 19.4 285.6 19.93 284.96 C 19.93 284.96 20.45 284.32 20.45 283.24 L 20.45 281.96 L 19.12 281.96 L 19.12 282.9 C 19.12 282.9 19.12 283.56 18.81 283.93 C 18.81 283.93 18.49 284.29 17.33 284.73 L 16.6 285.02 L 7.03 281.09 L 7.03 282.78 L 14.64 285.82 L 7.03 288.86 L 7.03 290.55 L 17.66 286.28 Z "/>
<path transform="matrix(1,0,0,-1,0,400)" d="M 3.8 298.47 L 3.8 300.23 L 16.76 300.23 L 16.76 298.47 L 3.8 298.47 Z "/>
<path transform="matrix(1,0,0,-1,0,400)" d="M 10.89 311.73 L 16.76 311.73 L 16.76 310.13 L 10.94 310.13 C 10.94 310.13 9.56 310.13 8.88 309.59 C 8.88 309.59 8.19 309.06 8.19 307.98 C 8.19 307.98 8.19 306.69 9.01 305.94 C 9.01 305.94 9.84 305.19 11.26 305.19 L 16.76 305.19 L 16.76 303.59 L 7.03 303.59 L 7.03 305.19 L 8.55 305.19 C 8.55 305.19 7.67 305.77 7.23 306.54 C 7.23 306.54 6.8 307.32 6.8 308.34 C 6.8 308.34 6.8 310.01 7.84 310.87 C 7.84 310.87 8.88 311.73 10.89 311.73 Z "/>
<path transform="matrix(1,0,0,-1,0,400)" d="M 8.51 321.31 L 3.25 321.31 L 3.25 322.91 L 16.76 322.91 L 16.76 321.31 L 15.3 321.31 C 15.3 321.31 16.17 320.81 16.59 320.04 C 16.59 320.04 17.01 319.27 17.01 318.2 C 17.01 318.2 17.01 316.43 15.6 315.32 C 15.6 315.32 14.2 314.22 11.9 314.22 C 11.9 314.22 9.61 314.22 8.21 315.32 C 8.21 315.32 6.8 316.43 6.8 318.2 C 6.8 318.2 6.8 319.27 7.23 320.04 C 7.23 320.04 7.64 320.81 8.51 321.31 M 11.9 315.87 C 11.9 315.87 13.67 315.87 14.67 316.59 C 14.67 316.59 15.67 317.32 15.67 318.59 C 15.67 318.59 15.67 319.85 14.67 320.58 C 14.67 320.58 13.67 321.31 11.9 321.31 C 11.9 321.31 10.14 321.31 9.14 320.58 C 9.14 320.58 8.14 319.85 8.14 318.59 C 8.14 318.59 8.14 317.32 9.14 316.59 C 9.14 316.59 10.14 315.87 11.9 315.87 Z "/>
<path transform="matrix(1,0,0,-1,0,400)" d="M 11.5 334.52 L 12.28 334.52 L 12.28 327.17 C 12.28 327.17 13.93 327.28 14.8 328.16 C 14.8 328.16 15.65 329.06 15.65 330.64 C 15.65 330.64 15.65 331.56 15.43 332.42 C 15.43 332.42 15.2 333.29 14.75 334.14 L 16.26 334.14 C 16.26 334.14 16.63 333.28 16.82 332.38 C 16.82 332.38 17.01 331.48 17.01 330.55 C 17.01 330.55 17.01 328.22 15.65 326.86 C 15.65 326.86 14.3 325.51 11.99 325.51 C 11.99 325.51 9.6 325.51 8.21 326.79 C 8.21 326.79 6.8 328.08 6.8 330.27 C 6.8 330.27 6.8 332.23 8.07 333.37 C 8.07 333.37 9.33 334.52 11.5 334.52 M 11.03 332.92 C 11.03 332.92 9.72 332.9 8.94 332.18 C 8.94 332.18 8.15 331.47 8.15 330.29 C 8.15 330.29 8.15 328.95 8.91 328.14 C 8.91 328.14 9.67 327.35 11.04 327.22 L 11.03 332.92 Z "/>
<path transform="matrix(1,0,0,-1,0,400)" d="M 7.03 344.91 L 11.77 341.39 L 16.76 345.09 L 16.76 343.21 L 12.94 340.38 L 16.76 337.55 L 16.76 335.66 L 11.67 339.44 L 7.03 335.98 L 7.03 337.87 L 10.5 340.44 L 7.03 343.02 L 7.03 344.91 Z "/>
<clipPath id="cp3">
<path transform="matrix(1,0,0,-1,0,400)" d="M 56.05 52.03 L 588.19 52.03 L 588.19 388.19 L 56.05 388.19 Z "/>
</clipPath>
<g clip-path="url(#cp3)">
<path transform="matrix(1,0,0,-1,0,400)" d="M 85.32 77.66 L 85.32 52.03 L 105.47 52.03 L 105.47 77.66 L 85.32 77.66 " fill="#808080" fill-rule="evenodd"/>
</g>
<path transform="matrix(1,0,0,-1,0,400)" stroke-width="1" stroke-linecap="round" stroke-linejoin="round" fill="none" stroke="#000000" d="M 85.32 77.66 L 85.32 52.03 L 105.47 52.03 L 105.47 77.66 L 85.32 77.66 "/>
<clipPath id="cp4">
<path transform="matrix(1,0,0,-1,0,400)" d="M 56.05 52.03 L 588.19 52.03 L 588.19 388.19 L 56.05 388.19 Z "/>
</clipPath>
<g clip-path="url(#cp4)">
<path transform="matrix(1,0,0,-1,0,400)" d="M 110.51 52.73 L 110.51 52.03 L 130.66 52.03 L 130.66 52.73 L 110.51 52.73 " fill="#808080" fill-rule="evenodd"/>
</g>
<path transform="matrix(1,0,0,-1,0,400)" stroke-width="1" stroke-linecap="round" stroke-linejoin="round" fill="none" stroke="#000000" d="M 110.51 52.73 L 110.51 52.03 L 130.66 52.03 L 130.66 52.73 L 110.51 52.73 "/>
<path transform="matrix(1,0,0,-1,0,400)" stroke-width="1" stroke-linecap="round" stroke-linejoin="round" fill="none" stroke="#000000" d="M 135.7 52.03 L 155.85 52.03 L 135.7 52.03 "/>
<clipPath id="cp5">
<path transform="matrix(1,0,0,-1,0,400)" d="M 56.05 52.03 L 588.19 52.03 L 588.19 388.19 L 56.05 388.19 Z "/>
</clipPath>
<g clip-path="url(#cp5)">
<path transform="matrix(1,0,0,-1,0,400)" d="M 160.89 71.01 L 160.89 52.03 L 181.04 52.03 L 181.04 71.01 L 160.89 71.01 " fill="#808080" fill-rule="evenodd"/>
</g>
<path transform="matrix(1,0,0,-1,0,400)" stroke-width="1" stroke-linecap="round" stroke-linejoin="round" fill="none" stroke="#000000" d="M 160.89 71.01 L 160.89 52.03 L 181.04 52.03 L 181.04 71.01 L 160.89 71.01 "/>
<clipPath id="cp6">
<path transform="matrix(1,0,0,-1,0,400)" d="M 56.05 52.03 L 588.19 52.03 L 588.19 388.19 L 56.05 388.19 Z "/>
</clipPath>
<g clip-path="url(#cp6)">
<path transform="matrix(1,0,0,-1,0,400)" d="M 186.08 66.64 L 186.08 52.03 L 206.24 52.03 L 206.24 66.64 L 186.08 66.64 " fill="#808080" fill-rule="evenodd"/>
</g>
<path transform="matrix(1,0,0,-1,0,400)" stroke-width="1" stroke-linecap="round" stroke-linejoin="round" fill="none" stroke="#000000" d="M 186.08 66.64 L 186.08 52.03 L 206.24 52.03 L 206.24 66.64 L 186.08 66.64 "/>
<clipPath id="cp7">
<path transform="matrix(1,0,0,-1,0,400)" d="M 56.05 52.03 L 588.19 52.03 L 588.19 388.19 L 56.05 388.19 Z "/>
</clipPath>
<g clip-path="url(#cp7)">
<path transform="matrix(1,0,0,-1,0,400)" d="M 211.27 64.19 L 211.27 52.03 L 231.43 52.03 L 231.43 64.19 L 211.27 64.19 " fill="#808080" fill-rule="evenodd"/>
</g>
<path transform="matrix(1,0,0,-1,0,400)" stroke-width="1" stroke-linecap="round" stroke-linejoin="round" fill="none" stroke="#000000" d="M 211.27 64.19 L 211.27 52.03 L 231.43 52.03 L 231.43 64.19 L 211.27 64.19 "/>
<path transform="matrix(1,0,0,-1,0,400)" stroke-width="1" stroke-linecap="round" stroke-linejoin="round" fill="none" stroke="#000000" d="M 236.47 52.03 L 256.62 52.03 L 236.47 52.03 "/>
<path transform="matrix(1,0,0,-1,0,400)" stroke-width="1" stroke-linecap="round" stroke-linejoin="round" fill="none" stroke="#000000" d="M 261.66 52.03 L 281.81 52.03 L 261.66 52.03 "/>
<clipPath id="cp8">
<path transform="matrix(1,0,0,-1,0,400)" d="M 56.05 52.03 L 588.19 52.03 L 588.19 388.19 L 56.05 388.19 Z "/>
</clipPath>
<g clip-path="url(#cp8)">
<path transform="matrix(1,0,0,-1,0,400)" d="M 286.85 208.47 L 286.85 52.03 L 307 52.03 L 307 208.47 L 286.85 208.47 " fill="#808080" fill-rule="evenodd"/>
</g>
<path transform="matrix(1,0,0,-1,0,400)" stroke-width="1" stroke-linecap="round" stroke-linejoin="round" fill="none" stroke="#000000" d="M 286.85 208.47 L 286.85 52.03 L 307 52.03 L 307 208.47 L 286.85 208.47 "/>
<clipPath id="cp9">
<path transform="matrix(1,0,0,-1,0,400)" d="M 56.05 52.03 L 588.19 52.03 L 588.19 388.19 L 56.05 388.19 Z "/>
</clipPath>
<g clip-path="url(#cp9)">
<path transform="matrix(1,0,0,-1,0,400)" d="M 312.04 52.76 L 312.04 52.03 L 332.19 52.03 L 332.19 52.76 L 312.04 52.76 " fill="#808080" fill-rule="evenodd"/>
</g>
<path transform="matrix(1,0,0,-1,0,400)" stroke-width="1" stroke-linecap="round" stroke-linejoin="round" fill="none" stroke="#000000" d="M 312.04 52.76 L 312.04 52.03 L 332.19 52.03 L 332.19 52.76 L 312.04 52.76 "/>
<clipPath id="cp10">
<path transform="matrix(1,0,0,-1,0,400)" d="M 56.05 52.03 L 588.19 52.03 L 588.19 388.19 L 56.05 388.19 Z "/>
</clipPath>
<g clip-path="url(#cp10)">
<path transform="matrix(1,0,0,-1,0,400)" d="M 337.23 54.29 L 337.23 52.03 L 357.39 52.03 L 357.39 54.29 L 337.23 54.29 " fill="#808080" fill-rule="evenodd"/>
</g>
<path transform="matrix(1,0,0,-1,0,400)" stroke-width="1" stroke-linecap="round" stroke-linejoin="round" fill="none" stroke="#000000" d="M 337.23 54.29 L 337.23 52.03 L 357.39 52.03 L 357.39 54.29 L 337.23 54.29 "/>
<clipPath id="cp11">
<path transform="matrix(1,0,0,-1,0,400)" d="M 56.05 52.03 L 588.19 52.03 L 588.19 388.19 L 56.05 388.19 Z "/>
</clipPath>
<g clip-path="url(#cp11)">
<path transform="matrix(1,0,0,-1,0,400)" d="M 362.42 52.04 L 362.42 52.03 L 382.58 52.03 L 382.58 52.04 L 362.42 52.04 " fill="#808080" fill-rule="evenodd"/>
</g>
<path transform="matrix(1,0,0,-1,0,400)" stroke-width="1" stroke-linecap="round" stroke-linejoin="round" fill="none" stroke="#000000" d="M 362.42 52.04 L 362.42 52.03 L 382.58 52.03 L 382.58 52.04 L 362.42 52.04 "/>
<clipPath id="cp12">
<path transform="matrix(1,0,0,-1,0,400)" d="M 56.05 52.03 L 588.19 52.03 L 588.19 388.19 L 56.05 388.19 Z "/>
</clipPath>
<g clip-path="url(#cp12)">
<path transform="matrix(1,0,0,-1,0,400)" d="M 387.62 95.56 L 387.62 52.03 L 407.77 52.03 L 407.77 95.56 L 387.62 95.56 " fill="#808080" fill-rule="evenodd"/>
</g>
<path transform="matrix(1,0,0,-1,0,400)" stroke-width="1" stroke-linecap="round" stroke-linejoin="round" fill="none" stroke="#000000" d="M 387.62 95.56 L 387.62 52.03 L 407.77 52.03 L 407.77 95.56 L 387.62 95.56 "/>
<clipPath id="cp13">
<path transform="matrix(1,0,0,-1,0,400)" d="M 56.05 52.03 L 588.19 52.03 L 588.19 388.19 L 56.05 388.19 Z "/>
</clipPath>
<g clip-path="url(#cp13)">
<path transform="matrix(1,0,0,-1,0,400)" d="M 412.81 89.83 L 412.81 52.03 L 432.96 52.03 L 432.96 89.83 L 412.81 89.83 " fill="#808080" fill-rule="evenodd"/>
</g>
<path transform="matrix(1,0,0,-1,0,400)" stroke-width="1" stroke-linecap="round" stroke-linejoin="round" fill="none" stroke="#000000" d="M 412.81 89.83 L 412.81 52.03 L 432.96 52.03 L 432.96 89.83 L 412.81 89.83 "/>
<clipPath id="cp14">
<path transform="matrix(1,0,0,-1,0,400)" d="M 56.05 52.03 L 588.19 52.03 L 588.19 388.19 L 56.05 388.19 Z "/>
</clipPath>
<g clip-path="url(#cp14)">
<path transform="matrix(1,0,0,-1,0,400)" d="M 438 164.42 L 438 52.03 L 458.15 52.03 L 458.15 164.42 L 438 164.42 " fill="#808080" fill-rule="evenodd"/>
</g>
<path transform="matrix(1,0,0,-1,0,400)" stroke-width="1" stroke-linecap="round" stroke-linejoin="round" fill="none" stroke="#000000" d="M 438 164.42 L 438 52.03 L 458.15 52.03 L 458.15 164.42 L 438 164.42 "/>
<clipPath id="cp15">
<path transform="matrix(1,0,0,-1,0,400)" d="M 56.05 52.03 L 588.19 52.03 L 588.19 388.19 L 56.05 388.19 Z "/>
</clipPath>
<g clip-path="url(#cp15)">
<path transform="matrix(1,0,0,-1,0,400)" d="M 463.19 77.48 L 463.19 52.03 L 483.34 52.03 L 483.34 77.48 L 463.19 77.48 " fill="#808080" fill-rule="evenodd"/>
</g>
<path transform="matrix(1,0,0,-1,0,400)" stroke-width="1" stroke-linecap="round" stroke-linejoin="round" fill="none" stroke="#000000" d="M 463.19 77.48 L 463.19 52.03 L 483.34 52.03 L 483.34 77.48 L 463.19 77.48 "/>
<clipPath id="cp16">
<path transform="matrix(1,0,0,-1,0,400)" d="M 56.05 52.03 L 588.19 52.03 L 588.19 388.19 L 56.05 388.19 Z "/>
</clipPath>
<g clip-path="url(#cp16)">
<path transform="matrix(1,0,0,-1,0,400)" d="M 488.38 115.58 L 488.38 52.03 L 508.54 52.03 L 508.54 115.58 L 488.38 115.58 " fill="#808080" fill-rule="evenodd"/>
</g>
<path transform="matrix(1,0,0,-1,0,400)" stroke-width="1" stroke-linecap="round" stroke-linejoin="round" fill="none" stroke="#000000" d="M 488.38 115.58 L 488.38 52.03 L 508.54 52.03 L 508.54 115.58 L 488.38 115.58 "/>
<clipPath id="cp17">
<path transform="matrix(1,0,0,-1,0,400)" d="M 56.05 52.03 L 588.19 52.03 L 588.19 388.19 L 56.05 388.19 Z "/>
</clipPath>
<g clip-path="url(#cp17)">
<path transform="matrix(1,0,0,-1,0,400)" d="M 513.58 81.03 L 513.58 52.03 L 533.73 52.03 L 533.73 81.03 L 513.58 81.03 " fill="#808080" fill-rule="evenodd"/>
</g>
<path transform="matrix(1,0,0,-1,0,400)" stroke-width="1" stroke-linecap="round" stroke-linejoin="round" fill="none" stroke="#000000" d="M 513.58 81.03 L 513.58 52.03 L 533.73 52.03 L 533.73 81.03 L 513.58 81.03 "/>
<clipPath id="cp18">
<path transform="matrix(1,0,0,-1,0,400)" d="M 56.05 52.03 L 588.19 52.03 L 588.19 388.19 L 56.05 388.19 Z "/>
</clipPath>
<g clip-path="url(#cp18)">
<path transform="matrix(1,0,0,-1,0,400)" d="M 538.77 52.26 L 538.77 52.03 L 558.92 52.03 L 558.92 52.26 L 538.77 52.26 " fill="#808080" fill-rule="evenodd"/>
</g>
<path transform="matrix(1,0,0,-1,0,400)" stroke-width="1" stroke-linecap="round" stroke-linejoin="round" fill="none" stroke="#000000" d="M 538.77 52.26 L 538.77 52.03 L 558.92 52.03 L 558.92 52.26 L 538.77 52.26 "/>
<path transform="matrix(1,0,0,-1,0,400)" stroke-width=".8" stroke-linecap="round" stroke-linejoin="round" fill="none" stroke="#808080" stroke-opacity="0" d="M 95.39 77.66 L 95.39 77.66 "/>
<path transform="matrix(1,0,0,-1,0,400)" stroke-width=".8" stroke-linecap="round" stroke-linejoin="round" fill="none" stroke="#808080" stroke-opacity="0" d="M 120.58 52.73 L 120.58 52.73 "/>
<path transform="matrix(1,0,0,-1,0,400)" stroke-width=".8" stroke-linecap="round" stroke-linejoin="round" fill="none" stroke="#808080" stroke-opacity="0" d="M 145.78 52.03 L 145.78 52.03 "/>
<path transform="matrix(1,0,0,-1,0,400)" stroke-width=".8" stroke-linecap="round" stroke-linejoin="round" fill="none" stroke="#808080" stroke-opacity="0" d="M 170.97 71.01 L 170.97 71.01 "/>
<path transform="matrix(1,0,0,-1,0,400)" stroke-width=".8" stroke-linecap="round" stroke-linejoin="round" fill="none" stroke="#808080" stroke-opacity="0" d="M 196.16 66.64 L 196.16 66.64 "/>
<path transform="matrix(1,0,0,-1,0,400)" stroke-width=".8" stroke-linecap="round" stroke-linejoin="round" fill="none" stroke="#808080" stroke-opacity="0" d="M 221.35 64.19 L 221.35 64.19 "/>
<path transform="matrix(1,0,0,-1,0,400)" stroke-width=".8" stroke-linecap="round" stroke-linejoin="round" fill="none" stroke="#808080" stroke-opacity="0" d="M 246.54 52.03 L 246.54 52.03 "/>
<path transform="matrix(1,0,0,-1,0,400)" stroke-width=".8" stroke-linecap="round" stroke-linejoin="round" fill="none" stroke="#808080" stroke-opacity="0" d="M 271.73 52.03 L 271.73 52.03 "/>
<path transform="matrix(1,0,0,-1,0,400)" stroke-width=".8" stroke-linecap="round" stroke-linejoin="round" fill="none" stroke="#808080" stroke-opacity="0" d="M 296.93 208.47 L 296.93 208.47 "/>
<path transform="matrix(1,0,0,-1,0,400)" stroke-width=".8" stroke-linecap="round" stroke-linejoin="round" fill="none" stroke="#808080" stroke-opacity="0" d="M 322.12 52.76 L 322.12 52.76 "/>
<path transform="matrix(1,0,0,-1,0,400)" stroke-width=".8" stroke-linecap="round" stroke-linejoin="round" fill="none" stroke="#808080" stroke-opacity="0" d="M 347.31 54.29 L 347.31 54.29 "/>
<path transform="matrix(1,0,0,-1,0,400)" stroke-width=".8" stroke-linecap="round" stroke-linejoin="round" fill="none" stroke="#808080" stroke-opacity="0" d="M 372.5 52.04 L 372.5 52.04 "/>
<path transform="matrix(1,0,0,-1,0,400)" stroke-width=".8" stroke-linecap="round" stroke-linejoin="round" fill="none" stroke="#808080" stroke-opacity="0" d="M 397.69 95.56 L 397.69 95.56 "/>
<path transform="matrix(1,0,0,-1,0,400)" stroke-width=".8" stroke-linecap="round" stroke-linejoin="round" fill="none" stroke="#808080" stroke-opacity="0" d="M 422.88 89.83 L 422.88 89.83 "/>
<path transform="matrix(1,0,0,-1,0,400)" stroke-width=".8" stroke-linecap="round" stroke-linejoin="round" fill="none" stroke="#808080" stroke-opacity="0" d="M 448.08 164.42 L 448.08 164.42 "/>
<path transform="matrix(1,0,0,-1,0,400)" stroke-width=".8" stroke-linecap="round" stroke-linejoin="round" fill="none" stroke="#808080" stroke-opacity="0" d="M 473.27 77.48 L 473.27 77.48 "/>
<path transform="matrix(1,0,0,-1,0,400)" stroke-width=".8" stroke-linecap="round" stroke-linejoin="round" fill="none" stroke="#808080" stroke-opacity="0" d="M 498.46 115.58 L 498.46 115.58 "/>
<path transform="matrix(1,0,0,-1,0,400)" stroke-width=".8" stroke-linecap="round" stroke-linejoin="round" fill="none" stroke="#808080" stroke-opacity="0" d="M 523.65 81.03 L 523.65 81.03 "/>
<path transform="matrix(1,0,0,-1,0,400)" stroke-width=".8" stroke-linecap="round" stroke-linejoin="round" fill="none" stroke="#808080" stroke-opacity="0" d="M 548.84 52.26 L 548.84 52.26 "/>
<path transform="matrix(1,0,0,-1,0,400)" stroke-width="1" stroke-linecap="round" stroke-linejoin="round" fill="none" stroke="#000000" d="M 95.39 72.39 L 95.39 82.93 "/>
<path transform="matrix(1,0,0,-1,0,400)" stroke-width="1" stroke-linecap="round" stroke-linejoin="round" fill="none" stroke="#000000" d="M 120.58 52.32 L 120.58 53.14 "/>
<path transform="matrix(1,0,0,-1,0,400)" stroke-width="1" stroke-linecap="round" stroke-linejoin="round" fill="none" stroke="#000000" d="M 170.97 65.51 L 170.97 76.51 "/>
<path transform="matrix(1,0,0,-1,0,400)" stroke-width="1" stroke-linecap="round" stroke-linejoin="round" fill="none" stroke="#000000" d="M 196.16 64.08 L 196.16 69.2 "/>
<path transform="matrix(1,0,0,-1,0,400)" stroke-width="1" stroke-linecap="round" stroke-linejoin="round" fill="none" stroke="#000000" d="M 221.35 62.17 L 221.35 66.21 "/>
<path transform="matrix(1,0,0,-1,0,400)" stroke-width="1" stroke-linecap="round" stroke-linejoin="round" fill="none" stroke="#000000" d="M 296.93 197.79 L 296.93 219.14 "/>
<path transform="matrix(1,0,0,-1,0,400)" stroke-width="1" stroke-linecap="round" stroke-linejoin="round" fill="none" stroke="#000000" d="M 322.12 52.35 L 322.12 53.18 "/>
<path transform="matrix(1,0,0,-1,0,400)" stroke-width="1" stroke-linecap="round" stroke-linejoin="round" fill="none" stroke="#000000" d="M 347.31 53.69 L 347.31 54.89 "/>
<path transform="matrix(1,0,0,-1,0,400)" stroke-width="1" stroke-linecap="round" stroke-linejoin="round" fill="none" stroke="#000000" d="M 372.5 52.03 L 372.5 52.04 "/>
<path transform="matrix(1,0,0,-1,0,400)" stroke-width="1" stroke-linecap="round" stroke-linejoin="round" fill="none" stroke="#000000" d="M 397.69 89.09 L 397.69 102.03 "/>
<path transform="matrix(1,0,0,-1,0,400)" stroke-width="1" stroke-linecap="round" stroke-linejoin="round" fill="none" stroke="#000000" d="M 422.88 83.68 L 422.88 95.97 "/>
<path transform="matrix(1,0,0,-1,0,400)" stroke-width="1" stroke-linecap="round" stroke-linejoin="round" fill="none" stroke="#000000" d="M 448.08 155.95 L 448.08 172.89 "/>
<path transform="matrix(1,0,0,-1,0,400)" stroke-width="1" stroke-linecap="round" stroke-linejoin="round" fill="none" stroke="#000000" d="M 473.27 73.18 L 473.27 81.77 "/>
<path transform="matrix(1,0,0,-1,0,400)" stroke-width="1" stroke-linecap="round" stroke-linejoin="round" fill="none" stroke="#000000" d="M 498.46 108.61 L 498.46 122.55 "/>
<path transform="matrix(1,0,0,-1,0,400)" stroke-width="1" stroke-linecap="round" stroke-linejoin="round" fill="none" stroke="#000000" d="M 523.65 78.72 L 523.65 83.35 "/>
<path transform="matrix(1,0,0,-1,0,400)" stroke-width="1" stroke-linecap="round" stroke-linejoin="round" fill="none" stroke="#000000" d="M 548.84 52.14 L 548.84 52.37 "/>
<path transform="matrix(1,0,0,-1,0,400)" stroke-width=".64" stroke-linecap="round" stroke-linejoin="round" fill="none" stroke="#000000" d="M 103.39 72.39 L 87.39 72.39 "/>
<path transform="matrix(1,0,0,-1,0,400)" stroke-width=".64" stroke-linecap="round" stroke-linejoin="round" fill="none" stroke="#000000" d="M 103.39 82.93 L 87.39 82.93 "/>
<path transform="matrix(1,0,0,-1,0,400)" stroke-width=".64" stroke-linecap="round" stroke-linejoin="round" fill="none" stroke="#000000" d="M 128.58 52.32 L 112.58 52.32 "/>
<path transform="matrix(1,0,0,-1,0,400)" stroke-width=".64" stroke-linecap="round" stroke-linejoin="round" fill="none" stroke="#000000" d="M 128.58 53.14 L 112.58 53.14 "/>
<path transform="matrix(1,0,0,-1,0,400)" stroke-width=".64" stroke-linecap="round" stroke-linejoin="round" fill="none" stroke="#000000" d="M 153.78 52.03 L 137.78 52.03 "/>
<path transform="matrix(1,0,0,-1,0,400)" stroke-width=".64" stroke-linecap="round" stroke-linejoin="round" fill="none" stroke="#000000" d="M 153.78 52.03 L 137.78 52.03 "/>
<path transform="matrix(1,0,0,-1,0,400)" stroke-width=".64" stroke-linecap="round" stroke-linejoin="round" fill="none" stroke="#000000" d="M 178.97 65.51 L 162.97 65.51 "/>
<path transform="matrix(1,0,0,-1,0,400)" stroke-width=".64" stroke-linecap="round" stroke-linejoin="round" fill="none" stroke="#000000" d="M 178.97 76.51 L 162.97 76.51 "/>
<path transform="matrix(1,0,0,-1,0,400)" stroke-width=".64" stroke-linecap="round" stroke-linejoin="round" fill="none" stroke="#000000" d="M 204.16 64.08 L 188.16 64.08 "/>
<path transform="matrix(1,0,0,-1,0,400)" stroke-width=".64" stroke-linecap="round" stroke-linejoin="round" fill="none" stroke="#000000" d="M 204.16 69.2 L 188.16 69.2 "/>
<path transform="matrix(1,0,0,-1,0,400)" stroke-width=".64" stroke-linecap="round" stroke-linejoin="round" fill="none" stroke="#000000" d="M 229.35 62.17 L 213.35 62.17 "/>
<path transform="matrix(1,0,0,-1,0,400)" stroke-width=".64" stroke-linecap="round" stroke-linejoin="round" fill="none" stroke="#000000" d="M 229.35 66.21 L 213.35 66.21 "/>
<path transform="matrix(1,0,0,-1,0,400)" stroke-width=".64" stroke-linecap="round" stroke-linejoin="round" fill="none" stroke="#000000" d="M 254.54 52.03 L 238.54 52.03 "/>
<path transform="matrix(1,0,0,-1,0,400)" stroke-width=".64" stroke-linecap="round" stroke-linejoin="round" fill="none" stroke="#000000" d="M 254.54 52.03 L 238.54 52.03 "/>
<path transform="matrix(1,0,0,-1,0,400)" stroke-width=".64" stroke-linecap="round" stroke-linejoin="round" fill="none" stroke="#000000" d="M 279.73 52.03 L 263.73 52.03 "/>
<path transform="matrix(1,0,0,-1,0,400)" stroke-width=".64" stroke-linecap="round" stroke-linejoin="round" fill="none" stroke="#000000" d="M 279.73 52.03 L 263.73 52.03 "/>
<path transform="matrix(1,0,0,-1,0,400)" stroke-width=".64" stroke-linecap="round" stroke-linejoin="round" fill="none" stroke="#000000" d="M 304.93 197.79 L 288.93 197.79 "/>
<path transform="matrix(1,0,0,-1,0,400)" stroke-width=".64" stroke-linecap="round" stroke-linejoin="round" fill="none" stroke="#000000" d="M 304.93 219.14 L 288.93 219.14 "/>
<path transform="matrix(1,0,0,-1,0,400)" stroke-width=".64" stroke-linecap="round" stroke-linejoin="round" fill="none" stroke="#000000" d="M 330.12 52.35 L 314.12 52.35 "/>
<path transform="matrix(1,0,0,-1,0,400)" stroke-width=".64" stroke-linecap="round" stroke-linejoin="round" fill="none" stroke="#000000" d="M 330.12 53.18 L 314.12 53.18 "/>
<path transform="matrix(1,0,0,-1,0,400)" stroke-width=".64" stroke-linecap="round" stroke-linejoin="round" fill="none" stroke="#000000" d="M 355.31 53.69 L 339.31 53.69 "/>
<path transform="matrix(1,0,0,-1,0,400)" stroke-width=".64" stroke-linecap="round" stroke-linejoin="round" fill="none" stroke="#000000" d="M 355.31 54.89 L 339.31 54.89 "/>
<path transform="matrix(1,0,0,-1,0,400)" stroke-width=".64" stroke-linecap="round" stroke-linejoin="round" fill="none" stroke="#000000" d="M 380.5 52.03 L 364.5 52.03 "/>
<path transform="matrix(1,0,0,-1,0,400)" stroke-width=".64" stroke-linecap="round" stroke-linejoin="round" fill="none" stroke="#000000" d="M 380.5 52.04 L 364.5 52.04 "/>
<path transform="matrix(1,0,0,-1,0,400)" stroke-width=".64" stroke-linecap="round" stroke-linejoin="round" fill="none" stroke="#000000" d="M 405.69 89.09 L 389.69 89.09 "/>
<path transform="matrix(1,0,0,-1,0,400)" stroke-width=".64" stroke-linecap="round" stroke-linejoin="round" fill="none" stroke="#000000" d="M 405.69 102.03 L 389.69 102.03 "/>
<path transform="matrix(1,0,0,-1,0,400)" stroke-width=".64" stroke-linecap="round" stroke-linejoin="round" fill="none" stroke="#000000" d="M 430.88 83.68 L 414.88 83.68 "/>
<path transform="matrix(1,0,0,-1,0,400)" stroke-width=".64" stroke-linecap="round" stroke-linejoin="round" fill="none" stroke="#000000" d="M 430.88 95.97 L 414.88 95.97 "/>
<path transform="matrix(1,0,0,-1,0,400)" stroke-width=".64" stroke-linecap="round" stroke-linejoin="round" fill="none" stroke="#000000" d="M 456.08 155.95 L 440.08 155.95 "/>
<path transform="matrix(1,0,0,-1,0,400)" stroke-width=".64" stroke-linecap="round" stroke-linejoin="round" fill="none" stroke="#000000" d="M 456.08 172.89 L 440.08 172.89 "/>
<path transform="matrix(1,0,0,-1,0,400)" stroke-width=".64" stroke-linecap="round" stroke-linejoin="round" fill="none" stroke="#000000" d="M 481.27 73.18 L 465.27 73.18 "/>
<path transform="matrix(1,0,0,-1,0,400)" stroke-width=".64" stroke-linecap="round" stroke-linejoin="round" fill="none" stroke="#000000" d="M 481.27 81.77 L 465.27 81.77 "/>
<path transform="matrix(1,0,0,-1,0,400)" stroke-width=".64" stroke-linecap="round" stroke-linejoin="round" fill="none" stroke="#000000" d="M 506.46 108.61 L 490.46 108.61 "/>
<path transform="matrix(1,0,0,-1,0,400)" stroke-width=".64" stroke-linecap="round" stroke-linejoin="round" fill="none" stroke="#000000" d="M 506.46 122.55 L 490.46 122.55 "/>
<path transform="matrix(1,0,0,-1,0,400)" stroke-width=".64" stroke-linecap="round" stroke-linejoin="round" fill="none" stroke="#000000" d="M 531.65 78.72 L 515.65 78.72 "/>
<path transform="matrix(1,0,0,-1,0,400)" stroke-width=".64" stroke-linecap="round" stroke-linejoin="round" fill="none" stroke="#000000" d="M 531.65 83.35 L 515.65 83.35 "/>
<path transform="matrix(1,0,0,-1,0,400)" stroke-width=".64" stroke-linecap="round" stroke-linejoin="round" fill="none" stroke="#000000" d="M 556.84 52.14 L 540.84 52.14 "/>
<path transform="matrix(1,0,0,-1,0,400)" stroke-width=".64" stroke-linecap="round" stroke-linejoin="round" fill="none" stroke="#000000" d="M 556.84 52.37 L 540.84 52.37 "/>
</g>
</g>
</svg>
